<svg xmlns="http://www.w3.org/2000/svg" version="1.0" width="800.000000pt" height="494.000000pt" viewBox="0 0 800.000000 494.000000" preserveAspectRatio="xMidYMid meet" style="&#10;    background: #272A31;&#10;">
<metadata>
Created by potrace 1.16, written by Peter Selinger 2001-2019
</metadata>
<g transform="translate(0.000000,494.000000) scale(0.100000,-0.100000)" fill="#fff" stroke="none">
<path d="M1715 3994 c-9 -9 -19 -30 -22 -46 -3 -18 -22 -43 -50 -65 -34 -28 -43 -42 -39 -57 3 -12 -4 -55 -14 -96 -27 -102 -25 -124 15 -249 l35 -108 0 -626 0 -627 -25 0 c-19 0 -25 6 -30 33 -3 17 -26 156 -51 307 l-46 275 18 98 17 98 -22 54 c-17 42 -20 58 -12 74 19 34 13 68 -15 90 -37 29 -62 27 -76 -6 -17 -39 -17 -39 -31 -19 -12 16 -14 16 -26 2 -18 -21 -5 -37 26 -30 21 6 24 4 19 -12 -3 -11 -8 -37 -12 -59 -7 -48 -9 -51 -28 -36 -18 15 -36 7 -36 -15 0 -12 7 -14 31 -9 29 7 31 6 24 -16 -10 -32 -12 -34 -29 -20 -17 14 -36 7 -36 -14 0 -20 21 -30 31 -14 12 20 30 -2 23 -29 -7 -24 -29 -30 -37 -9 -3 9 -7 9 -17 0 -7 -6 -10 -19 -7 -27 7 -18 27 -22 27 -6 0 6 5 10 10 10 6 0 10 -13 10 -30 0 -20 -5 -30 -15 -30 -8 0 -15 5 -15 10 0 6 -7 10 -15 10 -8 0 -15 -9 -15 -19 0 -23 16 -36 25 -21 11 18 25 10 25 -14 0 -14 10 -32 24 -43 21 -17 26 -37 56 -268 18 -137 35 -265 37 -282 l6 -33 -477 0 -476 0 0 -450 0 -450 408 -3 c392 -2 388 -2 -130 -5 -422 -1 -538 -5 -538 -14 0 -7 0 -183 0 -390 l0 -378 -120 0 -120 0 0 -209 0 -209 3833 -3 c2107 -2 3907 -3 4000 -1 l167 4 0 209 0 209 -145 0 -145 0 0 955 0 955 -270 0 c-173 0 -270 4 -270 10 0 6 80 10 220 10 l220 0 0 165 0 165 -166 0 -165 0 6 23 c16 51 51 101 75 107 31 7 45 52 55 175 8 85 10 92 42 121 67 61 64 155 -4 162 -25 3 -39 -3 -58 -24 -24 -26 -25 -26 -25 -5 0 12 -7 24 -15 27 -25 10 -46 -16 -43 -50 2 -25 7 -31 25 -29 22 3 22 2 6 -33 -16 -32 -18 -33 -25 -14 -11 30 -50 23 -62 -12 -13 -37 7 -62 36 -47 19 10 19 9 -3 -31 -20 -36 -25 -39 -27 -21 -5 33 -48 28 -60 -8 -12 -35 -1 -56 26 -49 20 6 20 5 4 -29 -15 -32 -17 -33 -26 -14 -12 28 -32 26 -52 -4 -21 -31 -15 -60 13 -59 18 0 20 -4 16 -31 -3 -21 0 -35 11 -44 19 -16 20 -36 5 -80 l-11 -31 -289 0 -289 0 0 -165 0 -165 230 0 c147 0 230 -4 230 -10 0 -6 -100 -10 -280 -10 l-280 0 0 -552 c-1 -522 -2 -555 -19 -593 -19 -40 -19 -26 -20 1111 l-1 1152 24 54 c45 101 48 128 26 199 -10 35 -17 73 -15 84 4 15 -5 27 -35 48 -26 19 -40 36 -40 51 0 68 -99 56 -115 -14 -9 -40 15 -64 62 -62 l40 2 7 -47 c3 -25 6 -643 6 -1372 l0 -1326 -61 -75 c-123 -154 -160 -310 -100 -428 24 -47 55 -73 116 -99 84 -34 60 -43 -114 -43 l-159 0 -177 206 c-97 113 -186 223 -198 243 -20 35 -21 50 -25 514 -4 460 -4 477 14 478 18 0 17 1 -1 8 l-20 8 20 5 c16 5 17 6 3 7 -17 1 -18 18 -18 216 0 118 4 215 8 215 5 0 44 -25 88 -55 44 -30 83 -50 88 -45 13 13 3 22 -82 80 -100 67 -106 82 -99 216 l5 104 -28 0 -29 0 6 -112 6 -112 -29 20 c-117 76 -353 240 -354 244 0 3 65 28 144 54 217 73 399 165 426 216 29 54 -30 75 -199 67 -374 -17 -1019 -220 -1135 -357 -48 -58 -9 -80 142 -80 125 0 249 17 434 60 72 17 138 28 144 26 34 -13 396 -271 401 -285 2 -9 9 -24 14 -33 5 -10 9 -111 9 -224 l0 -207 -37 7 c-21 3 -76 11 -123 17 -85 12 -125 31 -116 56 3 7 1 15 -4 18 -6 4 -10 15 -10 26 0 10 -7 19 -15 19 -8 0 -15 -9 -15 -19 0 -11 -5 -23 -10 -26 -8 -5 -8 -11 0 -20 20 -24 -19 -38 -188 -66 l-167 -27 185 -3 185 -3 -175 -6 -175 -5 155 -24 c191 -29 195 -31 185 -121 -4 -36 -7 -232 -7 -437 1 -208 -3 -375 -8 -378 -5 -3 -64 -84 -131 -181 -67 -96 -125 -171 -129 -167 -111 122 -121 136 -114 167 11 51 5 207 -10 271 -13 54 -13 62 1 77 9 10 24 18 35 18 10 0 18 5 18 10 0 6 -9 10 -21 10 -11 0 -27 7 -35 15 -9 8 -23 15 -33 15 -21 0 -51 49 -51 84 0 23 8 28 95 56 82 26 110 30 205 30 88 0 110 3 110 14 0 8 -6 17 -12 19 -10 4 -10 6 0 6 7 1 12 16 12 40 0 33 -4 40 -22 44 l-23 4 23 2 c19 1 22 7 22 41 0 22 -4 40 -10 40 -5 0 -10 9 -10 20 0 11 5 20 10 20 6 0 10 14 10 30 l0 30 -317 1 -318 0 70 24 c111 39 149 75 125 120 -12 22 -12 30 -1 47 12 19 11 23 -4 34 -25 18 -58 211 -38 218 18 7 16 21 -3 41 -10 9 -17 33 -18 53 -1 34 -4 38 -41 50 -88 30 -365 -8 -492 -68 -68 -31 -83 -50 -62 -77 12 -15 12 -16 -6 -9 -167 68 -474 99 -602 61 -49 -15 -73 -39 -55 -57 13 -13 2 -59 -14 -65 -20 -7 -18 -53 2 -53 15 0 15 -16 -2 -127 l-5 -33 -314 0 -315 0 0 -34 c0 -19 5 -38 11 -42 10 -6 9 -25 -5 -82 -8 -34 4 -82 20 -82 12 0 14 -43 14 -240 0 -207 -2 -240 -15 -240 -8 0 -15 -7 -16 -15 -3 -45 -1 -72 7 -89 5 -13 3 -21 -4 -24 -7 -2 -12 -12 -12 -23 0 -18 9 -19 140 -19 l140 0 0 -33 c0 -51 -27 -95 -120 -202 -47 -53 -88 -102 -92 -108 -8 -13 -26 2 -165 138 l-93 90 0 77 c0 45 -4 78 -10 78 -7 0 -10 205 -10 594 0 386 4 597 10 601 6 3 10 14 10 24 0 10 30 38 78 70 42 29 136 94 208 143 l132 90 143 -36 c174 -42 269 -57 385 -58 98 -2 129 5 138 29 34 89 -578 294 -904 304 -100 3 -128 -1 -151 -20 l-23 -19 34 -33 c38 -35 132 -82 253 -124 42 -15 77 -30 77 -34 -1 -7 -359 -252 -379 -259 -11 -4 -12 3 -7 32 7 35 6 36 -25 36 -30 0 -31 -1 -25 -33 10 -53 -15 -87 -108 -151 -76 -52 -96 -76 -65 -76 5 0 47 25 92 55 l82 55 3 -587 c1 -401 -1 -596 -8 -614 -6 -14 -10 -50 -9 -80 1 -30 -3 -65 -9 -79 -5 -14 -71 -96 -147 -182 l-136 -158 -130 0 -130 0 3 53 c2 43 6 52 21 49 9 -2 20 5 24 15 3 10 21 34 39 55 83 93 57 314 -51 440 -32 38 -35 47 -35 105 l0 63 -30 0 c-27 0 -30 3 -30 33 0 17 7 81 15 142 10 80 11 121 4 155 -11 47 -42 90 -66 90 -22 0 -63 -47 -63 -72 0 -63 -41 -138 -75 -138 -13 0 -15 50 -15 349 l0 350 -50 3 -49 3 -2 857 c-2 693 0 859 10 872 9 10 29 16 56 16 34 0 46 5 59 25 20 31 20 64 0 93 -18 26 -65 30 -89 6z m3955 -2533 c0 -256 -4 -402 -10 -406 -5 -3 -10 -40 -10 -82 l0 -76 -77 -73 c-42 -40 -80 -71 -84 -69 -4 3 -28 42 -54 87 l-47 83 4 230 c3 127 1 322 -3 435 -7 202 -7 205 14 220 20 14 179 47 240 49 l27 1 0 -399z m-1385 163 c19 -8 54 -14 77 -14 39 0 45 -3 57 -32 15 -32 6 -64 -18 -62 -6 1 -45 2 -86 3 l-75 1 1 88 c1 48 4 74 6 59 3 -21 13 -32 38 -43z m-427 -141 c56 -3 102 -10 102 -16 0 -5 7 -7 15 -3 29 11 15 -14 -17 -30 -59 -30 -162 -120 -203 -177 -22 -31 -43 -56 -46 -57 -8 0 -12 278 -3 291 3 6 16 8 28 5 11 -3 67 -9 124 -13z m-239 -653 c0 -39 5 -97 12 -130 9 -47 9 -66 -1 -89 -11 -27 -10 -33 11 -60 27 -34 39 -38 39 -14 0 9 16 -9 35 -41 19 -32 35 -60 35 -63 0 -2 -31 -3 -69 -1 l-69 3 -190 180 c-104 99 -193 187 -197 195 -10 21 -16 70 -9 81 3 5 95 9 204 9 l199 0 0 -70z m2192 -127 c47 -54 88 -103 92 -110 7 -11 -155 -163 -174 -163 -5 0 -9 83 -9 185 0 102 1 185 3 185 2 0 42 -44 88 -97z m-2671 -128 l0 -145 -53 0 c-48 0 -56 3 -91 39 l-39 40 22 27 c12 15 45 54 74 87 28 33 58 68 65 78 7 11 15 19 18 19 2 0 4 -65 4 -145z m234 16 l99 -99 -49 -31 c-27 -17 -55 -30 -63 -28 -11 1 -75 152 -107 249 -10 32 18 11 120 -91z m-784 -36 l0 -125 -72 0 c-69 0 -108 15 -108 42 0 9 169 208 177 208 1 0 3 -56 3 -125z m289 -43 c8 -4 -56 -77 -72 -80 -11 -2 -27 29 -61 115 -25 65 -46 123 -46 128 0 5 39 -29 87 -75 48 -47 89 -86 92 -88z m3095 1 c79 -90 84 -83 -61 -83 l-128 1 70 64 c39 35 72 64 74 65 2 0 22 -21 45 -47z"/>
</g>
</svg>