<svg xmlns="http://www.w3.org/2000/svg" version="1.0" width="298.000000pt" height="612.000000pt" viewBox="0 0 298.000000 612.000000" preserveAspectRatio="xMidYMid meet" style="&#10;    background: #272A31;&#10;">

<g transform="translate(0.000000,612.000000) scale(0.100000,-0.100000)" fill="#fff" stroke="none">
<path d="M640 5737 c-253 -275 -300 -322 -325 -324 -126 -8 -245 -56 -270 -110 -25 -53 -28 -89 -11 -135 13 -34 14 -55 7 -98 -5 -30 -7 -58 -4 -62 6 -11 102 -10 145 2 24 7 39 18 44 33 13 42 54 93 104 130 l51 38 -7 87 -6 87 237 280 c131 154 260 306 288 338 107 124 29 43 -253 -266z"/>
<path d="M2896 5339 c-14 -17 -26 -35 -26 -41 0 -24 -84 -108 -132 -132 -87 -44 -124 -34 -162 42 -11 20 -24 32 -37 32 -19 0 -20 -4 -14 -41 4 -22 18 -67 31 -100 28 -68 30 -118 8 -160 -14 -29 -14 -32 3 -51 21 -23 105 -68 127 -68 8 0 29 24 47 54 26 44 42 58 89 79 32 15 74 45 95 68 32 35 36 46 32 75 -3 19 -2 36 2 38 11 7 11 166 0 166 -4 0 -16 -15 -25 -32 -19 -39 -53 -78 -67 -78 -6 0 -1 10 11 23 41 44 79 157 53 157 -5 0 -21 -14 -35 -31z"/>
<path d="M1090 5042 c-36 -15 -69 -30 -75 -33 -5 -4 -26 -10 -45 -14 -57 -12 -106 -42 -143 -87 -52 -65 -57 -80 -64 -188 -8 -134 6 -170 106 -270 70 -69 76 -78 77 -118 2 -72 6 -73 224 -75 l193 -2 31 43 c17 24 49 53 71 65 25 14 42 32 45 47 3 14 13 40 24 59 14 27 16 39 7 52 -7 13 -7 20 0 25 6 3 8 21 4 43 -5 31 -2 40 19 61 34 31 34 65 -1 82 -85 43 -113 65 -113 90 0 49 -64 131 -115 148 -24 8 -35 19 -41 43 -18 62 -97 73 -204 29z"/>
<path d="M198 4929 c-32 -10 -88 -19 -125 -21 l-68 -3 3 -45 c2 -25 20 -144 42 -264 43 -240 41 -236 156 -396 89 -125 154 -202 311 -373 l150 -162 6 -76 c5 -57 18 -103 56 -196 73 -177 129 -348 141 -428 5 -38 10 -124 10 -191 0 -150 -17 -223 -95 -400 -53 -119 -84 -181 -171 -339 -45 -82 -85 -188 -134 -350 -47 -156 -131 -477 -126 -483 2 -1 18 23 36 55 60 106 246 390 332 505 46 62 129 156 183 208 273 260 340 347 391 505 15 45 23 60 24 43 0 -40 -36 -311 -70 -514 -66 -404 -91 -500 -219 -853 -33 -90 -54 -157 -47 -150 7 8 60 73 117 144 57 72 137 167 177 213 335 377 553 738 640 1061 24 88 26 113 26 296 0 213 -15 337 -69 563 -14 57 -25 126 -25 154 0 60 27 249 41 285 5 14 8 27 6 29 -8 8 -85 -41 -126 -79 -41 -39 -43 -40 -22 -9 28 40 69 71 141 107 115 57 495 289 536 327 78 72 135 176 212 392 40 109 69 202 66 207 -3 5 -10 9 -15 9 -29 0 -166 75 -196 106 -19 20 -38 33 -42 28 -5 -5 -64 -124 -132 -265 -68 -141 -125 -256 -127 -254 -1 1 4 18 13 38 l15 36 -55 -24 c-102 -46 -200 -97 -308 -162 -106 -65 -108 -66 -197 -72 -87 -6 -90 -6 -127 22 -85 64 -92 65 -253 49 -122 -13 -158 -13 -225 -2 -44 7 -100 14 -125 14 -44 1 -45 0 -70 -49 l-25 -50 -6 38 c-3 21 -10 42 -15 47 -6 6 -48 25 -94 44 -95 38 -307 187 -315 221 -3 11 -27 115 -55 230 -64 269 -60 255 -79 254 -9 -1 -42 -9 -73 -20z"/>
<path d="M1230 2288 c-25 -38 -89 -117 -143 -174 l-99 -104 16 -177 c17 -181 56 -516 60 -521 5 -5 95 322 116 422 33 155 107 627 98 625 -1 0 -23 -32 -48 -71z"/>
<path d="M1795 2042 c-151 -271 -367 -564 -649 -882 l-58 -65 6 -270 c9 -343 23 -596 36 -609 7 -7 43 -6 107 2 54 7 117 12 139 12 l41 0 7 46 c3 26 7 218 8 428 1 328 2 360 9 231 14 -241 39 -616 46 -668 l6 -47 36 7 c20 5 91 7 159 5 l122 -2 0 90 c0 115 25 461 50 698 17 151 20 248 19 550 -1 202 -4 419 -8 483 l-6 116 -70 -125z"/>
<path d="M1340 159 c-25 -4 -58 -5 -75 -3 -22 4 -53 -6 -115 -38 -78 -39 -85 -46 -88 -75 l-3 -33 103 -2 c112 -3 230 1 236 7 2 2 6 30 9 62 6 77 -6 92 -67 82z"/>
<path d="M1650 158 c-41 -5 -90 -7 -107 -5 -38 4 -41 -8 -22 -91 l12 -50 51 -6 c82 -10 154 -7 158 6 3 9 15 9 50 0 26 -7 97 -12 157 -12 98 0 113 2 131 20 39 39 23 53 -93 80 -48 11 -110 31 -137 45 -53 27 -77 28 -200 13z"/>
</g>
</svg>