<svg xmlns="http://www.w3.org/2000/svg" version="1.0" width="512.000000pt" height="512.000000pt" viewBox="0 0 512.000000 512.000000" preserveAspectRatio="xMidYMid meet" style="&#10;    background: #272A31;&#10;">
    
<g transform="translate(0.000000,512.000000) scale(0.100000,-0.100000)" fill="#fff" stroke="none">
<path d="M451 4209 c-83 -319 -85 -325 -125 -370 -23 -25 -48 -54 -57 -65 -9 -10 -25 -24 -35 -30 -17 -10 -19 -23 -19 -110 l0 -98 43 -51 c24 -27 61 -75 81 -105 45 -66 121 -263 119 -306 0 -17 2 -36 6 -42 4 -7 2 -21 -4 -32 -9 -16 -8 -25 0 -35 9 -11 6 -27 -14 -71 l-26 -57 25 -37 c29 -41 159 -169 219 -213 20 -16 80 -82 131 -146 102 -128 124 -143 205 -143 38 0 58 -6 78 -23 15 -12 63 -43 107 -69 62 -36 89 -46 124 -46 47 0 97 -26 199 -101 36 -27 52 -47 52 -62 0 -26 -97 -309 -164 -480 l-46 -119 91 -351 c50 -194 97 -376 105 -404 l15 -53 699 0 c657 0 699 1 704 17 3 10 10 50 17 88 10 60 21 83 74 160 34 50 74 112 90 138 l27 48 -21 92 c-42 187 -54 281 -55 434 -1 83 2 155 7 159 4 4 31 -1 60 -12 42 -15 79 -19 197 -20 80 0 192 -4 250 -8 146 -12 189 1 386 114 87 51 220 121 294 157 74 36 136 67 138 68 1 1 -2 14 -8 29 -9 24 -7 28 25 43 19 9 35 22 35 29 0 6 -11 42 -25 79 -29 77 -29 79 48 125 83 49 185 123 223 163 20 20 42 37 48 37 13 0 136 121 136 134 0 5 -13 6 -28 4 -25 -3 -28 -1 -24 18 2 12 -1 25 -7 28 -11 7 -21 -3 -86 -80 -30 -36 -42 -42 -111 -57 -57 -12 -81 -14 -91 -6 -20 17 -16 31 17 62 32 30 38 55 18 75 -21 21 -46 13 -75 -25 -15 -21 -51 -65 -79 -98 -29 -33 -64 -86 -80 -118 -17 -37 -36 -62 -51 -68 -13 -5 -56 -31 -96 -58 -41 -27 -89 -56 -109 -64 -19 -8 -44 -24 -54 -35 -10 -11 -48 -28 -84 -37 -79 -20 -146 -48 -222 -92 -31 -18 -70 -33 -86 -33 -16 0 -43 -5 -61 -11 -32 -11 -61 0 -99 37 -7 7 -28 18 -47 23 -19 5 -48 19 -64 30 -18 13 -45 21 -70 21 -32 0 -44 5 -57 25 -9 14 -23 25 -30 25 -8 0 -19 11 -24 25 -5 14 -20 30 -32 35 -13 5 -34 18 -47 30 -19 16 -22 26 -17 53 9 50 -23 75 -121 94 -146 27 -258 43 -299 43 -45 0 -104 21 -121 42 -6 7 -14 25 -18 41 -4 15 -14 27 -22 27 -13 0 -15 13 -10 88 5 94 35 185 70 213 19 16 19 18 3 90 -10 48 -15 111 -14 179 2 58 -1 123 -5 145 -5 22 -10 55 -13 73 -4 28 -14 37 -75 70 -39 20 -89 47 -112 60 -60 32 -107 29 -194 -15 -60 -31 -85 -51 -128 -104 l-53 -65 -17 -133 c-12 -92 -14 -136 -6 -144 5 -7 8 -23 5 -34 -4 -13 4 -38 19 -65 14 -24 28 -68 32 -102 6 -49 15 -67 51 -112 l44 -53 -21 -36 c-12 -19 -22 -35 -24 -35 -2 0 -34 6 -72 14 -97 20 -239 29 -325 20 -63 -6 -77 -11 -104 -38 -17 -17 -33 -38 -36 -46 -4 -13 -12 -13 -60 3 -30 9 -67 17 -82 17 -23 0 -121 23 -206 49 -14 4 -77 46 -141 92 -63 47 -129 91 -145 97 -31 13 -100 97 -197 238 -32 47 -70 92 -85 102 -14 9 -40 48 -61 92 -30 65 -35 86 -37 161 -2 92 -16 130 -75 212 -16 22 -29 49 -29 59 0 11 -13 31 -30 45 -16 13 -30 31 -30 38 0 7 38 171 86 365 47 193 84 356 82 362 -2 6 -42 -135 -87 -313z m1764 -1676 c3 -15 12 -31 18 -35 17 -11 71 -10 102 2 23 9 36 4 97 -32 70 -41 70 -41 87 -21 38 47 49 40 101 -71 102 -216 176 -490 200 -743 11 -115 11 -126 -9 -187 -28 -86 -88 -221 -98 -219 -4 0 -60 13 -123 27 -160 35 -376 65 -525 73 -88 4 -125 10 -125 18 0 7 20 95 44 196 140 576 167 722 167 897 l0 122 29 0 c22 0 29 -6 35 -27z"/>
</g>
</svg>