<svg xmlns="http://www.w3.org/2000/svg" version="1.0" width="1035.000000pt" height="982.000000pt" viewBox="0 0 1035.000000 982.000000" preserveAspectRatio="xMidYMid meet">

<g transform="translate(0.000000,982.000000) scale(0.100000,-0.100000)" fill="#fff" stroke="none" style="background: none;">
<path d="M9548 9810 c-111 -13 -286 -47 -343 -68 -62 -22 -91 -41 -183 -119 -94 -79 -423 -304 -557 -381 -27 -16 -68 -39 -90 -51 -42 -24 -118 -77 -155 -108 -43 -36 -56 -49 -105 -108 -94 -112 -140 -153 -325 -291 -217 -163 -283 -200 -388 -220 -42 -8 -106 -24 -142 -35 -86 -28 -289 -135 -320 -170 -11 -12 -68 -28 -123 -33 -53 -6 -60 -4 -82 20 -39 42 -84 129 -99 192 -8 31 -19 71 -26 87 -22 56 -12 195 18 247 15 26 79 58 115 58 9 0 46 14 82 31 73 34 85 56 67 117 -6 21 -11 55 -11 77 -2 108 -3 116 -27 142 -28 30 -29 42 -9 69 8 10 15 31 15 47 0 24 -8 31 -57 54 -32 15 -75 38 -95 51 -35 22 -38 29 -44 86 -6 59 -9 63 -68 118 -33 32 -76 65 -96 75 -19 10 -53 30 -75 44 -74 50 -292 47 -432 -4 -64 -24 -243 -161 -243 -187 0 -5 -7 -10 -16 -10 -9 0 -18 -9 -21 -21 -4 -15 -13 -20 -37 -19 -70 4 -81 0 -106 -36 -13 -20 -43 -56 -66 -79 -64 -66 -69 -92 -39 -189 l24 -81 72 -48 c43 -29 82 -47 100 -47 35 0 50 -21 77 -115 23 -76 80 -180 115 -207 12 -10 66 -31 119 -48 115 -36 123 -45 123 -145 0 -113 -42 -157 -120 -127 -25 10 -102 18 -210 24 -93 4 -195 11 -225 14 -43 4 -71 0 -128 -20 l-72 -25 -118 40 c-105 36 -162 57 -256 93 -36 14 -85 39 -196 100 -102 57 -227 92 -360 101 -52 3 -113 8 -135 10 -22 2 -74 7 -115 10 -77 6 -230 25 -405 51 -55 8 -138 26 -185 40 -77 22 -108 25 -350 30 -349 7 -467 -3 -585 -49 -49 -20 -121 -42 -160 -49 l-69 -15 26 -26 c16 -16 38 -27 55 -27 26 0 25 -2 -14 -20 -47 -21 -54 -35 -22 -45 18 -6 77 12 154 46 11 5 61 20 110 35 82 23 100 25 199 19 64 -4 121 -12 138 -21 47 -24 53 -102 8 -114 -113 -32 -139 -43 -164 -69 -39 -41 -30 -61 28 -61 25 0 48 5 51 10 3 6 16 10 28 10 13 0 48 9 80 20 31 11 72 20 91 20 42 0 123 35 191 84 42 30 58 36 101 36 49 0 172 -32 184 -48 10 -14 50 -32 69 -32 11 0 23 -4 26 -10 3 -5 15 -10 27 -10 11 0 32 -8 46 -18 15 -10 52 -28 82 -41 76 -31 88 -36 145 -59 28 -11 64 -23 80 -27 26 -5 193 -62 250 -85 91 -36 130 -50 141 -50 8 0 22 -4 32 -9 45 -25 130 -43 194 -42 54 1 80 -4 124 -24 30 -14 58 -25 63 -25 5 0 30 -9 57 -19 27 -11 76 -29 109 -42 33 -12 74 -28 90 -35 17 -7 53 -20 80 -29 28 -9 59 -20 70 -25 52 -23 161 -54 243 -67 18 -3 35 -9 38 -14 3 -5 14 -9 24 -9 10 0 42 -21 70 -47 l51 -48 15 -105 c17 -119 35 -285 39 -345 1 -22 7 -53 13 -70 6 -16 16 -62 23 -102 10 -63 10 -77 -6 -120 -9 -26 -17 -59 -16 -73 0 -28 -28 -101 -44 -112 -18 -14 -54 -8 -65 10 -9 15 -12 14 -34 -12 -22 -27 -28 -29 -48 -18 -35 18 -57 18 -139 -1 -63 -15 -83 -25 -121 -60 -68 -63 -134 -107 -161 -107 -13 0 -36 9 -50 20 -32 25 -60 25 -116 0 -54 -25 -69 -25 -101 0 -14 11 -38 20 -54 20 -18 0 -41 10 -57 26 -27 26 -30 26 -73 14 -39 -11 -52 -10 -117 11 -41 12 -91 31 -111 41 -21 10 -54 18 -75 18 -21 0 -73 9 -117 20 -43 11 -86 20 -94 20 -9 0 -34 18 -57 39 -60 59 -105 69 -263 63 -105 -4 -147 -1 -205 13 -65 16 -146 52 -172 76 -5 5 -23 9 -40 9 -18 0 -46 11 -66 26 -19 14 -63 39 -99 56 -36 16 -72 35 -80 43 -8 7 -26 16 -40 19 -14 4 -36 12 -49 19 -20 10 -26 8 -42 -11 -23 -29 -43 -24 -117 29 -62 44 -263 114 -357 123 -97 11 -249 44 -410 91 -137 40 -298 73 -540 110 -113 18 -313 67 -351 87 -16 8 -52 27 -80 41 -27 14 -70 29 -95 32 -62 9 -109 25 -109 36 0 6 -4 8 -9 5 -9 -6 -29 9 -231 170 -201 160 -359 243 -523 275 -54 10 -111 19 -128 19 -45 0 -88 -29 -111 -75 -12 -22 -32 -54 -45 -72 l-24 -32 17 -56 c17 -52 30 -68 159 -190 l140 -133 125 -52 c136 -56 249 -115 321 -167 57 -40 126 -63 197 -63 58 0 224 -37 336 -74 40 -14 120 -37 176 -51 117 -30 258 -102 523 -267 216 -135 365 -197 547 -228 101 -17 271 -58 320 -76 25 -9 58 -16 73 -16 15 1 31 -6 34 -14 3 -8 11 -14 18 -14 7 0 15 -16 18 -37 3 -21 10 -58 17 -83 6 -25 12 -98 12 -164 0 -102 3 -121 19 -137 11 -11 19 -30 19 -43 0 -12 11 -44 24 -69 33 -62 61 -221 45 -259 -10 -24 -8 -30 17 -52 26 -22 29 -30 29 -90 0 -70 -3 -66 67 -95 16 -6 28 -15 28 -20 0 -6 20 -35 45 -65 25 -31 45 -65 45 -75 0 -11 5 -23 10 -26 6 -4 17 -22 25 -41 19 -46 62 -81 107 -89 44 -8 54 -17 135 -116 58 -71 62 -79 61 -127 0 -61 4 -68 39 -77 32 -8 43 -21 43 -51 0 -32 46 -69 87 -69 31 0 36 -4 49 -40 17 -51 17 -75 -1 -99 -13 -18 -13 -22 6 -39 14 -13 20 -30 19 -56 -3 -54 -1 -61 13 -61 20 0 57 -35 57 -54 0 -9 -9 -25 -19 -35 -19 -19 -18 -49 5 -106 13 -34 57 -65 90 -65 20 0 34 -6 38 -16 10 -27 6 -78 -8 -97 -13 -16 -11 -25 11 -68 14 -27 32 -49 40 -49 28 0 72 -41 84 -78 23 -74 74 -121 148 -137 31 -6 81 -49 81 -69 2 -42 118 -112 168 -101 31 6 47 -6 85 -64 28 -44 66 -66 158 -92 108 -30 142 -49 152 -84 16 -54 23 -60 63 -61 22 0 44 -2 50 -2 6 -1 26 -42 44 -91 35 -97 35 -122 -2 -195 -14 -27 -18 -48 -13 -70 4 -17 7 -47 8 -66 1 -19 8 -39 15 -43 9 -6 12 -51 12 -165 0 -223 15 -308 76 -438 13 -27 41 -97 63 -155 37 -100 142 -318 222 -464 70 -126 109 -204 109 -219 0 -8 14 -44 30 -81 27 -60 30 -77 30 -166 l0 -99 -33 -14 c-27 -11 -36 -22 -46 -59 -8 -26 -10 -62 -7 -84 9 -49 84 -162 189 -285 51 -59 88 -112 95 -136 7 -24 12 -111 12 -226 0 -140 4 -194 14 -214 7 -15 19 -52 25 -83 l12 -56 46 -7 c110 -15 204 7 217 51 3 10 17 63 31 118 15 55 43 154 62 220 31 105 34 124 23 150 -29 71 -50 164 -50 221 0 133 -67 381 -128 472 -51 76 -88 141 -97 172 -23 75 -48 130 -60 130 -7 0 -26 37 -45 87 -64 179 -101 363 -119 599 -6 67 -22 201 -37 297 -15 97 -24 183 -21 191 5 12 21 16 67 16 52 0 60 -3 60 -18 0 -29 38 -66 81 -78 38 -12 41 -11 49 11 14 36 28 39 74 14 l43 -22 44 34 45 33 0 71 -1 70 35 -2 c19 -1 59 -6 87 -11 29 -4 58 -5 65 0 7 4 39 8 71 8 42 0 59 -4 63 -15 7 -16 39 -20 48 -6 4 5 24 12 45 16 31 5 41 12 43 28 2 18 11 23 48 25 25 2 49 7 55 13 5 5 16 9 25 9 8 0 22 4 30 10 12 7 11 12 -5 30 -10 11 -29 50 -41 86 -22 63 -81 161 -129 214 -12 14 -38 53 -58 87 -33 56 -36 70 -38 147 -1 47 -13 156 -26 243 -18 118 -23 181 -19 248 3 50 10 171 16 270 5 99 14 221 20 270 5 50 14 153 20 230 12 172 59 632 67 663 3 12 12 22 20 22 13 0 14 8 7 48 -8 44 -7 339 1 427 7 72 24 157 34 169 5 6 17 40 27 75 l17 63 -23 18 c-20 15 -22 21 -12 48 13 38 89 152 102 152 5 0 18 26 30 57 12 31 36 84 55 117 18 34 50 101 70 150 20 48 54 123 75 165 96 191 111 259 111 486 -1 99 -6 213 -12 253 -10 59 -9 78 1 98 11 19 11 27 2 36 -16 16 -15 43 3 77 15 30 74 75 267 203 66 44 143 97 171 119 29 22 90 69 137 104 47 36 103 78 125 94 42 32 75 61 167 144 93 86 113 102 374 303 233 180 320 258 435 394 209 246 220 256 314 286 121 38 201 45 335 28 155 -19 257 -39 321 -64 125 -47 147 -7 40 69 -77 56 -92 75 -71 95 23 23 67 -3 180 -111 92 -88 121 -106 135 -84 6 11 -64 97 -158 193 -59 59 -64 68 -52 85 11 15 31 19 118 21 88 3 109 7 126 23 32 30 17 40 -62 38 -40 -1 -173 0 -297 4 -124 3 -259 2 -302 -3z"/>
</g>
</svg>