<?xml version="1.0" standalone="no"?>
<!DOCTYPE svg PUBLIC "-//W3C//DTD SVG 20010904//EN"
 "http://www.w3.org/TR/2001/REC-SVG-20010904/DTD/svg10.dtd">
<svg version="1.0" xmlns="http://www.w3.org/2000/svg"
 width="500.000000pt" height="500.000000pt" viewBox="0 0 500.000000 500.000000"
 preserveAspectRatio="xMidYMid meet">
<metadata>
Created by potrace 1.16, written by Peter Selinger 2001-2019
</metadata>
<g transform="translate(0.000000,500.000000) scale(0.100000,-0.100000)"
fill="#ED721D" stroke="none">
<path d="M1068 3310 c-323 -58 -592 -325 -654 -647 -81 -425 160 -825 576
-954 99 -31 318 -34 420 -6 277 77 492 291 576 572 23 78 26 108 26 225 0 117
-3 147 -26 225 -83 279 -300 496 -571 570 -69 19 -277 28 -347 15z m312 -141
c239 -66 421 -249 487 -490 24 -87 24 -271 0 -358 -83 -304 -350 -511 -657
-511 -191 0 -341 62 -474 194 -45 45 -96 106 -114 138 -125 213 -125 503 0
716 18 32 69 93 114 138 89 89 197 151 309 178 92 22 246 20 335 -5z"/>
<path d="M1135 3013 c-147 -20 -302 -128 -373 -261 -34 -64 -62 -158 -62 -209
l0 -33 100 0 c82 0 100 -3 100 -15 0 -12 -18 -15 -100 -15 l-100 0 0 -29 c0
-59 3 -61 114 -61 90 0 103 -2 114 -20 12 -20 10 -20 -98 -20 -60 0 -110 -2
-110 -5 0 -3 7 -21 14 -40 l15 -35 124 0 c116 0 125 -2 157 -25 l34 -25 -137
0 c-150 0 -156 -3 -112 -52 l24 -28 370 0 370 0 20 29 c12 16 21 34 21 40 0 7
-44 11 -136 11 l-137 0 37 25 c34 23 45 25 160 25 l124 0 11 31 c6 18 11 36
11 40 0 5 -47 9 -104 9 -99 0 -104 1 -99 20 5 18 14 20 114 20 106 0 109 1
109 23 0 12 3 32 6 45 6 22 5 22 -100 22 -88 0 -106 3 -106 15 0 12 18 15 106
15 l105 0 -6 48 c-40 293 -295 493 -580 455z m136 -304 c159 -48 202 -271 72
-378 -98 -81 -246 -57 -316 51 -109 169 51 384 244 327z"/>
<path d="M940 2067 c0 -26 130 -73 227 -82 46 -5 92 -2 139 8 74 16 174 60
174 77 0 6 -100 10 -270 10 -219 0 -270 -3 -270 -13z"/>
<path d="M2274 2876 c-67 -29 -99 -102 -92 -211 8 -118 57 -175 151 -175 24 0
58 5 76 11 l31 11 0 109 0 109 -65 0 -65 0 0 -45 c0 -38 3 -45 20 -45 16 0 20
-7 20 -30 0 -23 -5 -30 -19 -30 -33 0 -51 38 -51 105 0 39 6 69 16 83 16 23
58 30 69 12 11 -18 31 -10 49 21 22 38 16 56 -29 74 -42 18 -71 18 -111 1z"/>
<path d="M2539 2867 c-95 -63 -109 -259 -24 -344 29 -29 39 -33 88 -33 65 0
100 23 128 84 21 47 25 154 8 207 -32 94 -127 135 -200 86z m99 -107 c19 -37
11 -149 -12 -166 -40 -29 -71 24 -64 110 7 84 46 112 76 56z"/>
<path d="M4115 2875 c-53 -27 -78 -76 -83 -166 -5 -94 13 -155 59 -194 25 -20
41 -25 86 -25 49 0 59 4 88 33 42 42 59 102 53 189 -6 72 -27 119 -69 150 -35
26 -97 32 -134 13z m84 -99 c18 -22 25 -109 12 -149 -14 -41 -32 -51 -57 -33
-26 19 -33 136 -10 171 18 28 38 32 55 11z"/>
<path d="M2780 2684 l0 -195 48 3 47 3 5 75 5 75 24 -77 25 -78 48 0 c57 0 58
2 22 99 l-26 70 21 27 c14 18 21 41 21 70 0 93 -41 124 -164 124 l-76 0 0
-196z"/>
<path d="M3020 2878 c0 -2 16 -86 35 -188 19 -102 35 -188 35 -192 0 -5 22 -8
49 -8 56 0 56 0 71 97 6 37 14 71 18 77 3 6 13 -29 22 -79 l16 -90 51 -3 c49
-3 51 -2 57 25 3 15 17 91 31 168 14 77 28 152 31 168 5 27 5 27 -44 27 l-49
0 -14 -97 -14 -98 -12 60 c-6 33 -14 77 -18 98 -6 37 -6 37 -55 37 l-48 0 -13
-106 c-7 -59 -15 -102 -16 -97 -2 5 -9 52 -16 104 l-13 94 -52 3 c-29 2 -52 2
-52 0z"/>
<path d="M3450 2685 l0 -195 100 0 100 0 0 50 0 50 -50 0 c-49 0 -50 1 -50 30
0 29 2 30 45 30 l45 0 0 40 0 40 -45 0 c-43 0 -45 1 -45 30 0 29 2 30 45 30
l45 0 0 45 0 45 -95 0 -95 0 0 -195z"/>
<path d="M3680 2685 l0 -196 98 3 97 3 3 48 3 47 -50 0 -51 0 0 145 0 145 -50
0 -50 0 0 -195z"/>
<path d="M3900 2685 l0 -195 50 0 50 0 0 195 0 195 -50 0 -50 0 0 -195z"/>
<path d="M4350 2686 l0 -196 45 0 45 0 1 88 0 87 32 -85 32 -85 53 -3 52 -3 0
195 0 196 -45 0 -44 0 -3 -87 -3 -86 -30 84 -30 84 -53 3 -52 3 0 -195z"/>
<path d="M2570 2393 c-57 -29 -84 -91 -84 -188 0 -70 4 -88 27 -127 42 -72
133 -94 197 -48 68 48 89 204 41 298 -37 73 -113 100 -181 65z"/>
<path d="M3509 2387 c-19 -12 -44 -42 -57 -67 -20 -39 -23 -56 -20 -126 6
-126 52 -186 143 -186 91 0 137 60 143 186 3 70 0 87 -20 126 -27 53 -78 90
-123 90 -18 0 -47 -10 -66 -23z m98 -107 c24 -48 10 -161 -22 -174 -7 -2 -21
1 -32 9 -15 11 -18 27 -18 88 0 77 14 111 44 105 8 -2 21 -14 28 -28z"/>
<path d="M4102 2393 c-39 -19 -62 -59 -62 -107 0 -53 19 -83 72 -117 73 -44
55 -81 -27 -55 -15 5 -25 -2 -42 -29 l-23 -35 24 -15 c89 -59 194 -23 212 72
9 49 -17 98 -73 136 -49 32 -59 67 -19 67 14 0 28 -4 31 -10 10 -17 19 -11 43
26 26 40 23 51 -24 70 -43 18 -71 17 -112 -3z"/>
<path d="M2190 2205 l0 -195 50 0 50 0 0 80 0 80 35 0 35 0 0 -80 0 -80 50 0
50 0 0 195 0 195 -50 0 -50 0 0 -70 0 -70 -35 0 -35 0 0 70 0 70 -50 0 -50 0
0 -195z"/>
<path d="M2806 2384 c-3 -9 -6 -89 -6 -179 0 -90 3 -170 6 -179 4 -11 19 -16
50 -16 l43 0 3 78 3 77 26 -75 26 -75 51 -3 c29 -2 52 1 52 5 0 5 -13 42 -29
83 -28 74 -28 75 -9 100 46 63 27 159 -36 185 -50 21 -172 20 -180 -1z"/>
<path d="M3080 2204 l0 -195 48 3 47 3 3 193 2 192 -50 0 -50 0 0 -196z"/>
<path d="M3210 2355 l0 -45 45 0 c25 0 45 -2 45 -4 0 -2 -22 -51 -50 -110 -34
-72 -50 -120 -50 -146 l0 -40 110 0 110 0 0 50 0 50 -49 0 -50 0 50 105 c33
71 49 117 49 145 l0 40 -105 0 -105 0 0 -45z"/>
<path d="M3750 2205 l0 -195 45 0 45 0 1 88 0 87 33 -85 33 -85 52 -3 51 -3 0
195 0 196 -45 0 -45 0 -1 -87 0 -88 -32 87 -32 88 -52 0 -53 0 0 -195z"/>
</g>
</svg>
