<svg xmlns="http://www.w3.org/2000/svg" version="1.0" width="800.000000pt" height="800.000000pt" viewBox="0 0 800.000000 800.000000" preserveAspectRatio="xMidYMid meet" style="&#10;    background: none;&#10;">
<metadata>
Created by potrace 1.16, written by Peter Selinger 2001-2019
</metadata>
<g transform="translate(0.000000,800.000000) scale(0.100000,-0.100000)" fill="#fff" stroke="none">
<path d="M1485 7489 c-121 -93 -226 -177 -232 -186 -29 -38 -15 -70 72 -177 47 -57 85 -108 85 -113 0 -5 -7 -19 -16 -31 -12 -17 -19 -20 -29 -12 -19 16 -45 1 -45 -26 0 -33 56 -94 86 -94 23 0 29 9 24 39 -2 16 20 61 30 61 3 0 30 -31 59 -69 51 -67 52 -70 37 -94 -13 -18 -23 -23 -46 -19 -28 4 -30 2 -30 -26 0 -40 48 -92 85 -92 24 0 27 3 23 29 -3 18 2 38 13 53 l18 23 17 -24 c9 -12 38 -49 65 -81 l48 -58 -21 -27 c-14 -18 -24 -23 -31 -16 -15 15 -47 -5 -47 -29 0 -11 14 -35 31 -55 24 -27 39 -35 58 -33 22 3 26 7 24 34 -2 20 4 37 16 48 17 16 20 14 52 -28 30 -39 48 -51 143 -90 l109 -45 179 120 c98 66 183 117 188 114 17 -10 -70 190 -106 244 -27 40 -33 56 -23 61 9 6 4 21 -20 59 -33 51 -48 60 -68 40 -8 -8 -22 4 -52 43 l-41 53 21 17 21 18 -32 50 c-32 49 -33 50 -56 35 -13 -8 -25 -15 -28 -15 -2 0 -21 23 -41 51 -35 47 -36 51 -19 63 17 13 16 16 -15 64 -31 49 -34 51 -55 37 -22 -15 -25 -12 -117 119 -52 74 -98 135 -104 135 -5 0 -109 -76 -230 -170z m257 -50 c-4 -3 -65 -52 -137 -109 -71 -57 -134 -106 -138 -111 -5 -4 103 -144 240 -310 137 -167 253 -310 257 -317 8 -13 -19 -52 -35 -52 -5 0 -134 154 -288 341 l-280 342 172 138 172 137 22 -26 c12 -15 18 -30 15 -33z"/>
<path d="M2460 6562 c0 -15 -326 -233 -335 -224 -4 4 7 -13 26 -38 19 -25 57 -80 84 -123 28 -42 53 -77 58 -77 4 0 82 50 172 110 140 94 164 113 156 128 -25 45 -161 235 -161 224z"/>
<path d="M2488 6176 c-92 -61 -167 -115 -167 -121 0 -5 26 -51 58 -102 l58 -92 174 116 c96 64 176 117 177 119 4 2 -111 170 -127 185 -3 4 -81 -43 -173 -105z"/>
<path d="M2765 6031 c-22 -15 -99 -68 -172 -118 l-132 -90 60 -89 c33 -49 64 -88 70 -86 7 2 329 212 347 227 5 4 -121 185 -128 185 -3 -1 -23 -13 -45 -29z"/>
<path d="M2785 5724 c-93 -63 -170 -117 -170 -122 0 -12 110 -182 118 -182 7 0 331 213 350 230 8 7 -106 183 -121 187 -4 1 -83 -50 -177 -113z"/>
<path d="M2938 5502 c-98 -64 -178 -120 -178 -124 0 -14 102 -163 111 -161 6 2 342 225 357 239 3 2 -107 164 -111 164 -1 0 -82 -53 -179 -118z"/>
<path d="M3076 5305 c-92 -62 -173 -118 -178 -123 -6 -6 7 -35 38 -81 26 -39 50 -71 53 -71 3 0 87 54 187 121 l182 120 -51 75 c-28 41 -53 74 -56 73 -3 0 -82 -51 -175 -114z"/>
<path d="M3188 5109 l-178 -120 42 -62 c22 -34 42 -64 44 -65 2 -4 193 122 311 205 l62 44 -42 59 c-22 33 -46 60 -51 59 -6 0 -91 -54 -188 -120z"/>
<path d="M3315 4954 c-93 -63 -176 -119 -184 -123 -11 -7 -4 -22 29 -72 24 -35 44 -65 46 -67 4 -6 373 242 374 251 0 12 -80 127 -88 126 -4 0 -83 -52 -177 -115z"/>
<path d="M3413 4776 l-182 -122 39 -60 c22 -32 44 -59 48 -59 13 0 372 239 372 248 0 15 -73 117 -84 116 -6 0 -93 -55 -193 -123z"/>
<path d="M3530 4624 c-102 -68 -185 -128 -185 -132 0 -14 69 -122 78 -122 11 0 377 249 377 256 0 5 -82 125 -84 123 -1 0 -84 -56 -186 -125z"/>
<path d="M3637 4455 c-103 -69 -187 -127 -187 -130 0 -3 12 -23 26 -45 l26 -39 193 131 193 131 -25 38 c-14 22 -28 39 -32 39 -3 0 -90 -56 -194 -125z"/>
<path d="M4360 4499 c-94 -11 -224 -51 -312 -95 l-67 -34 -31 45 c-17 25 -33 45 -36 45 -4 0 -371 -245 -382 -255 -8 -7 55 -95 65 -91 6 3 93 59 192 126 122 81 181 115 183 105 0 -8 1 -19 2 -24 1 -6 -78 -64 -175 -129 -121 -82 -180 -117 -187 -110 -21 21 -298 -188 -427 -323 -126 -132 -198 -255 -231 -397 -24 -99 -14 -261 21 -372 69 -215 163 -343 384 -522 254 -206 301 -282 322 -523 36 -414 93 -649 224 -921 171 -356 399 -578 675 -657 112 -32 217 -41 321 -27 90 12 421 97 506 129 499 193 976 574 1196 956 100 174 147 331 154 523 14 348 -104 617 -385 874 -97 89 -202 157 -412 269 -378 199 -426 231 -492 327 -46 66 -76 149 -129 357 -63 244 -110 342 -216 455 -80 85 -175 154 -270 196 -138 62 -340 92 -493 73z m310 -65 c250 -57 441 -205 541 -419 20 -44 53 -145 73 -225 68 -267 110 -367 190 -457 58 -64 128 -109 381 -241 402 -211 551 -328 693 -545 109 -169 153 -308 159 -514 7 -206 -21 -334 -118 -529 -177 -355 -626 -744 -1089 -942 -272 -117 -411 -139 -620 -101 -336 62 -655 330 -784 659 -60 152 -89 320 -106 610 -19 317 -42 476 -81 552 -31 60 -108 139 -234 236 -244 190 -333 288 -420 467 -64 131 -84 199 -92 321 -14 213 67 413 237 585 63 63 195 169 211 169 4 0 22 -20 39 -45 l31 -45 195 131 195 130 -15 25 c-9 13 -23 35 -32 48 -16 25 -15 25 53 60 82 41 186 73 274 86 81 11 235 4 319 -16z"/>
<path d="M3888 4063 l-187 -125 27 -42 c14 -22 27 -43 28 -45 2 -3 365 240 386 258 10 9 -40 81 -55 80 -7 0 -96 -57 -199 -126z"/>
<path d="M3972 3956 c-100 -68 -185 -126 -189 -129 -11 -12 47 -88 60 -80 88 56 377 255 377 260 0 13 -45 73 -55 72 -5 0 -92 -56 -193 -123z"/>
<path d="M4045 3849 c-104 -72 -190 -133 -190 -137 0 -12 39 -72 45 -70 10 6 375 251 383 258 8 7 -32 80 -43 79 -3 0 -90 -59 -195 -130z"/>
<path d="M4120 3740 c-107 -72 -196 -134 -197 -138 -2 -4 6 -18 16 -31 l18 -23 196 132 c109 73 197 136 197 140 0 4 -8 17 -17 29 l-18 22 -195 -131z"/>
<path d="M4179 3660 c-107 -72 -195 -135 -197 -142 -1 -7 8 -26 21 -42 l23 -29 197 132 c108 72 197 135 197 139 0 5 -10 22 -23 40 l-23 31 -195 -129z"/>
<path d="M4255 3564 c-104 -69 -198 -133 -208 -142 -31 -27 -57 -135 -57 -237 0 -110 22 -191 75 -280 94 -156 235 -241 420 -254 l89 -6 243 -360 c133 -198 242 -365 243 -371 0 -6 -80 -68 -177 -137 -98 -69 -187 -132 -198 -140 -18 -14 -17 -19 54 -126 67 -101 76 -110 93 -99 164 113 1147 815 1148 820 0 5 -117 202 -134 225 -1 1 -87 -59 -191 -133 -105 -74 -193 -133 -197 -132 -4 2 -116 165 -249 362 -239 356 -242 360 -229 390 7 17 21 63 32 101 47 168 -17 364 -163 499 -93 87 -237 146 -354 146 -47 0 -60 -7 -240 -126z m348 61 c90 -23 156 -62 228 -134 73 -73 111 -139 135 -234 20 -76 14 -186 -13 -248 l-19 -44 -41 60 c-38 57 -41 65 -45 150 -3 67 -10 101 -27 133 -45 88 -116 146 -233 191 -22 8 -108 116 -108 135 0 11 66 6 123 -9z m-483 -311 c18 -28 22 -52 24 -146 2 -97 5 -121 28 -168 52 -112 155 -195 257 -207 44 -5 52 -10 80 -49 l31 -44 -56 0 c-67 0 -159 30 -228 74 -152 97 -244 301 -216 477 5 38 15 80 22 94 13 29 26 23 58 -31z m1085 -775 l240 -361 -30 -24 c-16 -13 -33 -20 -36 -16 -4 4 -111 164 -238 355 l-232 348 21 29 c12 17 24 30 28 30 4 0 115 -163 247 -361z m-60 -74 l227 -339 -28 -22 -27 -22 -17 21 c-9 12 -115 169 -235 349 l-219 328 24 25 c19 20 26 23 36 13 6 -7 114 -166 239 -353z m-82 -50 c125 -186 227 -341 227 -344 0 -3 -11 -14 -25 -24 l-24 -17 -235 347 -234 348 21 17 c12 10 27 16 32 15 6 -2 112 -156 238 -342z m-77 -47 c126 -189 230 -345 231 -348 1 -3 -9 -13 -22 -23 l-25 -18 -235 353 c-211 317 -233 354 -218 366 9 6 22 12 28 12 7 0 115 -154 241 -342z m-82 -53 c234 -347 236 -350 216 -369 -11 -11 -22 -17 -26 -14 -3 4 -113 167 -245 364 -236 354 -249 379 -197 372 10 -2 115 -149 252 -353z"/>
</g>
</svg>