<svg xmlns="http://www.w3.org/2000/svg" version="1.0" width="920.000000pt" height="720.000000pt" viewBox="0 0 920.000000 720.000000" preserveAspectRatio="xMidYMid meet" style="background: none;">
<metadata>
Created by potrace 1.16, written by Peter Selinger 2001-2019
</metadata>
<g transform="translate(0.000000,720.000000) scale(0.100000,-0.100000)" fill="#fff" stroke="none" style="&#10;    background: black;&#10;">
<path d="M8023 7140 c-18 -4 -40 -13 -48 -20 -22 -18 -19 -67 4 -80 29 -15 117 6 136 33 19 28 19 33 -5 57 -21 21 -35 23 -87 10z"/>
<path d="M8530 7093 c-14 -3 -146 -26 -295 -53 -148 -27 -538 -97 -865 -155 -327 -58 -603 -108 -613 -111 -15 -5 -14 -9 11 -32 16 -15 37 -43 47 -62 20 -37 26 -127 12 -170 -8 -24 -8 -25 9 -5 26 32 64 117 64 145 0 25 5 27 228 79 1333 312 1405 329 1426 350 11 12 16 20 11 20 -6 -1 -21 -4 -35 -6z"/>
<path d="M7293 7008 c-63 -14 -83 -71 -34 -97 19 -10 108 5 129 21 17 14 15 53 -4 72 -17 18 -29 18 -91 4z"/>
<path d="M7035 6963 c-55 -8 -85 -59 -53 -91 23 -23 132 -8 150 20 12 20 9 45 -8 62 -15 16 -30 17 -89 9z"/>
<path d="M8565 6881 c-12 -39 -93 -109 -153 -131 -47 -18 -90 -24 -237 -30 -200 -9 -257 -21 -341 -75 -91 -59 -144 -150 -143 -250 l0 -60 13 40 c34 106 103 195 183 235 43 21 67 25 213 31 125 5 181 12 230 28 110 35 187 97 234 189 10 19 15 36 13 39 -3 2 -8 -5 -12 -16z"/>
<path d="M6634 6244 c-137 -140 -525 -531 -1887 -1901 -468 -470 -495 -493 -606 -523 -104 -27 -255 -5 -353 53 -65 38 -145 128 -181 204 -30 64 -32 75 -32 180 0 119 -8 123 -30 15 -20 -92 -19 -165 5 -256 28 -109 63 -170 150 -256 68 -68 117 -99 208 -136 21 -8 12 -20 -140 -178 -90 -93 -164 -172 -166 -175 -1 -4 62 -28 140 -55 79 -27 148 -51 155 -53 6 -3 29 11 51 31 l39 35 52 -36 53 -37 167 169 c91 94 503 517 916 940 412 424 837 860 945 970 107 110 285 292 395 405 505 518 519 531 575 560 98 50 195 74 301 74 108 1 108 8 0 32 -91 21 -219 15 -310 -14 l-63 -21 -54 44 c-30 24 -75 51 -101 59 -27 8 -55 17 -63 20 -11 4 -62 -42 -166 -150z"/>
<path d="M3746 5034 c-234 -46 -429 -168 -565 -354 -99 -134 -165 -274 -272 -571 -173 -486 -287 -662 -519 -799 -155 -93 -314 -141 -648 -195 -119 -20 -264 -45 -322 -56 -439 -87 -708 -289 -792 -596 -30 -110 -30 -299 0 -439 93 -434 396 -970 755 -1338 92 -94 104 -104 55 -46 -272 322 -481 691 -613 1080 -72 212 -89 291 -89 420 -1 183 40 287 157 400 113 109 247 171 492 226 83 19 202 46 265 60 165 37 335 95 464 158 343 166 499 345 783 900 79 153 166 317 194 363 151 250 315 411 512 503 87 41 226 80 287 80 19 0 40 4 47 8 6 4 21 45 33 92 11 47 23 93 26 103 5 15 -4 17 -88 16 -51 0 -124 -7 -162 -15z"/>
<path d="M3025 3121 c-93 -48 -99 -146 -16 -251 11 -14 22 -22 26 -18 3 3 12 45 19 92 14 94 33 126 75 126 14 0 85 -21 156 -46 277 -97 478 -164 482 -160 6 5 -147 86 -257 136 -296 133 -407 161 -485 121z"/>
<path d="M4225 2996 c-21 -191 48 -387 182 -517 120 -116 251 -176 409 -186 97 -7 167 13 221 60 88 78 82 200 -13 254 -51 30 -105 29 -179 -4 -33 -14 -91 -36 -128 -50 -61 -21 -74 -23 -122 -13 -139 29 -244 159 -320 400 -43 133 -42 132 -50 56z"/>
<path d="M2575 2611 c-75 -46 -93 -114 -55 -213 35 -93 46 -90 81 25 23 75 60 127 90 127 28 0 80 -28 294 -160 105 -64 224 -136 265 -160 41 -24 85 -50 98 -58 46 -30 19 -1 -65 70 -182 154 -430 326 -523 365 -68 28 -144 30 -185 4z"/>
<path d="M1834 2092 c-22 -11 -50 -31 -61 -46 -44 -55 -53 -180 -19 -260 l12 -29 27 32 c15 18 45 64 68 102 45 78 86 107 135 95 20 -5 126 -103 324 -299 162 -161 315 -310 339 -332 l44 -40 -48 70 c-131 190 -310 407 -466 566 -67 68 -111 104 -153 124 -75 37 -147 42 -202 17z"/>
<path d="M4508 1965 c-449 -131 -715 -297 -887 -555 -109 -163 -151 -263 -246 -583 -103 -344 -162 -471 -281 -597 -116 -122 -219 -170 -367 -170 -99 0 -143 10 -418 95 -117 36 -218 65 -224 65 -27 -1 278 -124 405 -164 314 -99 586 -56 748 118 123 133 213 324 348 736 124 380 149 449 194 540 95 190 198 278 430 368 340 133 445 174 449 178 12 11 -46 -1 -151 -31z"/>
</g>
</svg>