<?xml version="1.0" standalone="no"?>
<!DOCTYPE svg PUBLIC "-//W3C//DTD SVG 20010904//EN"
 "http://www.w3.org/TR/2001/REC-SVG-20010904/DTD/svg10.dtd">
<svg version="1.0" xmlns="http://www.w3.org/2000/svg"
 width="500.000000pt" height="500.000000pt" viewBox="0 0 500.000000 500.000000"
 preserveAspectRatio="xMidYMid meet">
<metadata>
Created by potrace 1.16, written by Peter Selinger 2001-2019
</metadata>
<g transform="translate(0.000000,500.000000) scale(0.100000,-0.100000)"
fill="#ec5242" stroke="none">
<path d="M1706 4128 c-3 -13 -14 -75 -26 -138 -77 -415 -327 -799 -702 -1077
-65 -48 -88 -71 -88 -88 l0 -22 87 18 c108 23 171 24 271 3 96 -19 145 -47
211 -120 91 -99 144 -239 158 -411 l6 -83 33 0 c26 0 34 4 34 18 0 10 16 66
35 124 198 607 623 989 1099 988 182 0 356 -46 501 -132 85 -51 235 -198 294
-288 54 -83 123 -223 159 -325 17 -47 35 -81 44 -83 9 -2 38 19 66 46 58 56
118 94 180 112 56 17 54 37 -10 85 -163 124 -359 367 -486 605 -95 177 -177
417 -203 590 -14 99 -30 104 -83 28 -116 -167 -307 -300 -489 -342 -87 -20
-256 -21 -342 -1 -197 46 -349 137 -520 309 -55 56 -116 125 -135 153 -28 42
-41 53 -62 53 -21 0 -29 -6 -32 -22z"/>
<path d="M805 2118 c-3 -12 -4 -147 -3 -298 l3 -275 88 -3 87 -3 0 98 0 98 26
-60 c14 -33 32 -77 41 -97 l15 -38 100 0 c76 0 99 3 95 13 -3 6 -26 58 -53
115 l-47 102 21 23 c23 25 52 97 52 131 0 73 -51 150 -124 189 -34 18 -62 22
-168 25 -127 4 -127 4 -133 -20z"/>
<path d="M1390 2124 c-77 -33 -115 -95 -132 -213 -13 -89 -1 -205 27 -264 24
-50 72 -95 114 -107 20 -5 63 -10 96 -10 153 1 225 97 225 300 0 212 -74 311
-232 310 -35 -1 -79 -8 -98 -16z m126 -165 c16 -18 19 -37 19 -124 0 -87 -3
-106 -19 -124 -38 -42 -62 -21 -76 65 -12 73 2 174 27 192 23 16 27 15 49 -9z"/>
<path d="M1853 2119 c-23 -11 -54 -37 -70 -57 -25 -33 -28 -45 -28 -114 0 -88
13 -109 100 -159 l49 -28 -84 -3 -85 -3 3 -40 c5 -62 39 -123 85 -153 36 -24
50 -27 122 -27 74 0 85 3 118 27 66 51 82 84 82 170 0 74 -1 78 -35 113 -19
20 -68 52 -107 71 -43 20 -73 41 -73 49 0 22 28 18 35 -5 6 -18 15 -20 91 -20
l84 0 0 27 c0 15 -10 47 -21 71 -45 93 -167 130 -266 81z"/>
<path d="M2187 2133 c-4 -3 -7 -138 -7 -300 l0 -293 90 0 90 0 0 78 c1 51 5
83 15 96 14 18 15 18 25 -10 6 -16 22 -59 36 -96 l26 -68 99 0 c54 0 99 2 99
4 0 3 -34 80 -75 171 -41 92 -75 171 -75 176 0 5 31 59 70 121 38 62 66 116
62 120 -5 5 -47 8 -93 6 l-84 -3 -52 -95 -53 -95 0 98 0 97 -83 0 c-46 0 -87
-3 -90 -7z"/>
<path d="M2670 1840 l0 -300 90 0 90 0 0 300 0 300 -90 0 -90 0 0 -300z"/>
<path d="M2917 2133 c-4 -3 -7 -138 -7 -300 l0 -293 185 0 185 0 0 80 0 80
-95 0 -95 0 0 220 0 220 -83 0 c-46 0 -87 -3 -90 -7z"/>
<path d="M3317 2133 c-4 -3 -7 -138 -7 -300 l0 -293 153 0 c152 0 154 0 199
29 97 62 132 239 82 417 -19 69 -69 119 -136 139 -52 15 -278 22 -291 8z m250
-193 c16 -31 17 -166 2 -209 -9 -25 -16 -31 -40 -31 l-29 0 0 136 0 135 27 -3
c17 -2 32 -12 40 -28z"/>
<path d="M3800 1840 l0 -300 200 0 200 0 0 80 0 80 -110 0 -110 0 0 30 0 30
70 0 70 0 0 80 0 80 -70 0 c-68 0 -70 1 -70 25 l0 25 105 0 106 0 -3 83 -3 82
-192 3 -193 2 0 -300z"/>
<path d="M1880 1448 c-119 -34 -176 -170 -115 -274 21 -37 39 -50 111 -84 64
-30 85 -45 82 -58 -2 -9 -12 -17 -23 -17 -14 0 -21 8 -23 28 l-3 27 -90 0 -89
0 0 -37 c1 -164 198 -249 338 -146 18 13 41 42 52 63 24 48 27 138 5 181 -20
37 -78 80 -150 109 -38 15 -55 28 -53 38 5 26 27 25 34 -2 6 -25 8 -26 90 -26
73 0 84 2 84 18 0 15 8 17 65 14 l65 -4 0 -214 0 -214 90 0 90 0 0 215 0 215
60 0 60 0 0 85 0 85 -215 0 -215 0 0 -67 c-1 -65 -1 -67 -14 -38 -26 61 -116
117 -181 114 -11 0 -36 -5 -55 -11z"/>
<path d="M900 1150 l0 -300 90 0 90 0 0 105 0 105 80 0 80 0 0 80 0 80 -80 0
-80 0 0 30 0 30 105 0 105 0 0 85 0 85 -195 0 -195 0 0 -300z"/>
<path d="M1320 1150 l0 -300 200 0 200 0 0 80 0 80 -108 0 -109 0 5 30 c4 29
5 29 71 32 l66 3 3 78 3 77 -74 0 c-73 0 -74 0 -70 25 5 24 8 24 102 27 l96 3
3 83 3 82 -196 0 -195 0 0 -300z"/>
<path d="M2600 1150 l0 -300 90 0 90 0 0 300 0 300 -90 0 -90 0 0 -300z"/>
<path d="M2810 1439 c0 -10 61 -243 111 -424 11 -38 24 -91 31 -117 l11 -48
87 0 87 0 38 143 c21 78 55 203 76 277 55 191 58 180 -50 180 l-88 0 -23 -102
c-12 -57 -26 -119 -30 -138 -4 -23 -9 -30 -13 -20 -6 13 -57 244 -57 256 0 2
-40 4 -90 4 -60 0 -90 -4 -90 -11z"/>
<path d="M3357 1383 c-18 -72 -31 -120 -96 -355 -23 -82 -41 -155 -41 -163 0
-12 17 -15 94 -15 l95 0 6 43 7 42 48 -3 c48 -4 49 -4 55 -43 l7 -39 94 0 c65
0 94 4 94 12 0 6 -18 77 -40 157 -22 80 -52 189 -66 241 -14 52 -32 116 -41
143 l-15 47 -92 0 -92 0 -17 -67z"/>
<path d="M3740 1150 l0 -300 188 2 187 3 0 75 0 75 -95 5 -95 5 0 215 0 215
-92 3 -93 3 0 -301z"/>
</g>
</svg>
