<svg xmlns="http://www.w3.org/2000/svg" version="1.0" width="360.000000pt" height="360.000000pt" viewBox="0 0 360.000000 360.000000" preserveAspectRatio="xMidYMid meet">

<g transform="translate(0.000000,360.000000) scale(0.100000,-0.100000)" fill="#272A31" stroke="none">
<path d="M0 1800 l0 -1800 1800 0 1800 0 0 1800 0 1800 -1800 0 -1800 0 0 -1800z m2860 1078 c11 -18 20 -37 20 -43 0 -5 -23 -26 -52 -45 -29 -19 -107 -74 -175 -122 -67 -49 -129 -88 -137 -88 -18 0 -76 -48 -76 -63 -1 -7 -11 -25 -24 -40 l-23 -29 -48 67 c-26 36 -45 68 -43 69 35 26 166 93 208 105 40 13 60 25 75 48 11 17 52 51 90 76 39 26 84 58 100 71 40 34 62 32 85 -6z m-284 -136 c-11 -21 -27 -31 -66 -41 -28 -7 -82 -31 -118 -52 -74 -44 -90 -37 -55 24 16 26 26 32 52 32 24 0 43 9 68 32 38 37 89 55 116 41 15 -8 16 -12 3 -36z m-1090 -37 c36 -37 78 -67 127 -90 86 -41 117 -67 117 -99 0 -33 20 -46 97 -62 98 -21 115 -44 72 -98 l-21 -27 26 -20 c31 -25 28 -46 -13 -99 l-28 -35 66 0 66 0 3 -33 c2 -21 12 -38 28 -48 43 -29 33 -67 -31 -114 -92 -68 -144 -129 -161 -189 -14 -47 -15 -124 -2 -137 7 -6 138 41 198 71 50 26 69 29 195 35 130 7 146 10 230 44 50 20 122 53 160 74 l70 37 0 90 c0 81 -5 102 -44 210 l-43 120 -70 55 c-38 30 -76 60 -83 66 -31 23 37 114 85 114 6 0 49 29 97 65 86 63 88 64 95 40 3 -13 15 -37 25 -52 29 -41 43 -89 43 -145 0 -37 10 -68 40 -128 60 -120 108 -240 135 -342 43 -161 35 -190 -78 -286 -151 -127 -409 -280 -542 -322 -96 -30 -145 -52 -145 -66 0 -8 -30 -47 -67 -86 -141 -154 -216 -306 -247 -505 l-11 -72 -55 70 c-75 96 -288 301 -388 372 -258 185 -500 277 -729 277 l-92 0 29 63 c16 34 39 98 51 142 18 72 20 97 14 250 -7 199 -2 222 73 346 27 46 68 122 90 169 53 110 153 222 244 270 34 18 76 42 92 53 75 52 132 77 180 77 46 0 52 -3 102 -55z m827 -208 c26 -40 47 -78 47 -83 0 -17 -63 -76 -97 -90 -54 -23 -82 -18 -124 25 -32 32 -39 45 -39 79 0 48 32 92 89 122 60 32 71 27 124 -53z"/>
</g>
</svg>