<svg xmlns="http://www.w3.org/2000/svg" version="1.0" width="296.000000pt" height="612.000000pt" viewBox="0 0 296.000000 612.000000" preserveAspectRatio="xMidYMid meet">

<g transform="translate(0.000000,312.000000) scale(0.100000,-0.100000)" fill="#fff" stroke="none" style="background: none;">
<path d="M1603 5753 c-20 -34 -84 -103 -94 -103 -4 0 -9 10 -11 22 -4 26 -43 39 -91 31 -27 -4 -38 -16 -69 -69 -21 -35 -38 -72 -38 -83 0 -34 -28 -108 -107 -281 -78 -171 -123 -317 -123 -398 0 -70 -35 -259 -51 -278 -9 -11 -15 -47 -16 -103 -2 -47 -4 -104 -5 -126 -1 -22 2 -70 7 -108 6 -56 5 -74 -10 -107 -16 -35 -16 -47 -6 -97 8 -41 9 -94 3 -178 -9 -138 0 -297 23 -386 19 -74 26 -224 11 -258 -9 -21 -6 -28 32 -61 45 -40 56 -86 28 -109 -22 -18 -27 -56 -31 -216 -3 -103 -10 -177 -24 -235 -30 -131 -71 -369 -71 -417 0 -24 -7 -60 -15 -80 -8 -19 -15 -46 -15 -59 0 -34 -20 -71 -47 -89 -15 -10 -23 -25 -23 -44 0 -22 -13 -42 -49 -78 -77 -75 -101 -129 -101 -228 0 -103 -14 -180 -50 -270 -16 -41 -26 -81 -23 -96 3 -17 -4 -38 -21 -64 -30 -43 -33 -70 -10 -83 14 -8 13 -17 -10 -90 -14 -45 -27 -100 -28 -123 -3 -38 0 -43 32 -60 43 -22 120 -38 154 -32 42 8 60 101 36 183 -9 31 -8 37 12 54 20 16 23 27 22 81 0 57 2 65 22 74 36 16 51 50 57 129 5 58 17 98 61 202 31 71 56 141 56 157 0 49 17 91 58 140 73 87 140 216 212 403 39 102 92 236 118 298 l47 113 8 -178 c6 -141 13 -195 32 -263 13 -47 25 -103 26 -125 3 -51 -10 -164 -20 -190 -32 -75 -44 -233 -32 -395 7 -87 5 -99 -16 -142 -28 -57 -28 -76 -6 -123 15 -31 15 -37 3 -45 -15 -9 -22 -88 -10 -105 4 -5 11 -33 15 -62 7 -55 17 -63 95 -79 19 -3 69 -20 110 -36 202 -81 273 -75 251 22 -11 51 -12 52 -76 75 -60 22 -103 63 -111 104 -4 17 -13 31 -20 31 -19 0 -18 7 6 37 23 30 25 77 5 113 -19 34 -19 89 1 111 21 23 33 132 33 300 1 111 4 133 27 189 31 77 46 195 70 545 15 225 16 257 2 320 -24 110 -79 317 -89 337 -6 11 -6 24 2 36 9 14 6 34 -15 93 -14 42 -26 84 -26 94 0 9 -12 49 -26 89 -28 78 -40 174 -30 230 8 44 19 40 46 -21 13 -31 24 -43 34 -40 9 4 23 -8 38 -29 33 -48 142 -134 171 -134 32 0 76 36 92 74 7 17 16 74 21 126 6 80 11 100 34 132 23 32 30 35 40 24 6 -8 17 -13 24 -10 6 2 23 -7 36 -21 13 -14 27 -25 32 -25 15 0 8 27 -12 45 -11 10 -20 24 -20 30 0 7 -9 24 -21 39 -13 16 -18 33 -14 46 4 13 1 22 -9 26 -9 3 -16 12 -16 20 0 21 -32 54 -52 54 -11 0 -18 8 -18 20 0 23 -10 26 -28 8 -9 -9 -20 -4 -48 23 -19 18 -41 48 -48 64 -18 41 -86 105 -111 105 -27 0 -65 -40 -65 -67 0 -22 91 -113 113 -113 8 0 22 -8 31 -19 14 -15 15 -23 5 -44 -9 -19 -9 -34 0 -58 6 -17 11 -41 11 -51 0 -11 9 -33 21 -49 15 -21 19 -37 14 -58 -10 -45 -29 -56 -44 -25 -6 14 -9 30 -5 35 3 5 -10 37 -29 72 -19 34 -40 82 -47 107 -6 25 -29 68 -51 97 -35 46 -44 53 -96 64 -42 10 -67 23 -96 50 -35 35 -36 38 -17 44 13 4 33 -1 54 -14 45 -28 55 -27 72 14 8 19 18 35 23 35 5 0 14 14 20 30 8 24 16 30 40 30 30 0 31 2 31 45 0 34 5 47 20 55 11 6 20 19 20 30 0 11 11 44 24 74 38 86 40 110 16 160 -13 25 -29 43 -38 42 -9 0 -19 10 -23 24 -4 14 -7 19 -8 12 -1 -10 -6 -10 -21 -2 -15 8 -20 8 -20 -1 0 -7 -8 -5 -20 6 -11 10 -20 15 -20 11 0 -3 -10 0 -22 8 -41 26 -86 29 -154 10 -35 -9 -64 -20 -64 -25 0 -4 -8 -10 -18 -13 -9 -3 -23 -15 -30 -27 -11 -17 -11 -20 0 -13 7 4 -4 -11 -24 -33 l-37 -42 6 -96 c5 -90 4 -97 -17 -121 -26 -26 -52 -31 -67 -11 -20 26 -40 122 -31 147 6 16 5 40 -1 65 -5 22 -13 78 -16 125 -3 47 -10 111 -16 143 -9 52 -7 66 20 150 16 50 35 121 41 157 7 36 32 124 57 195 44 127 45 130 85 150 33 16 44 29 58 66 9 25 32 67 51 93 66 92 88 129 83 137 -10 17 -34 8 -51 -18z"/>
</g>
</svg>