<svg xmlns="http://www.w3.org/2000/svg" version="1.0" width="600.000000pt" height="1307.000000pt" viewBox="0 0 600.000000 1307.000000" preserveAspectRatio="xMidYMid meet">

<g transform="translate(0.000000,1307.000000) scale(0.100000,-0.100000)" fill="#fff" stroke="none" style="&#10;    background: none;&#10;">
<path d="M4240 13055 c-30 -7 -91 -14 -135 -14 -74 -1 -84 -4 -131 -35 -95 -64 -148 -157 -142 -248 3 -47 1 -50 -85 -153 -95 -114 -107 -136 -107 -195 0 -32 -8 -47 -49 -92 -26 -29 -60 -70 -73 -90 l-26 -37 -6 38 c-7 45 -44 88 -83 96 -15 3 -48 12 -73 20 -25 8 -63 15 -85 15 -28 0 -36 3 -26 9 28 18 -5 83 -99 199 -50 61 -100 118 -112 127 -26 17 -84 20 -93 4 -5 -6 -11 -4 -19 7 -17 22 -173 37 -234 22 l-43 -11 -58 56 c-32 31 -56 59 -53 62 3 3 -4 5 -16 5 -11 0 -24 -4 -27 -10 -3 -5 -18 -9 -33 -9 -19 1 -21 3 -8 6 16 4 15 7 -10 23 -28 17 -61 10 -48 -11 7 -13 -10 -11 -23 2 -18 18 -113 38 -151 32 -163 -26 -276 -250 -346 -683 -51 -313 -59 -430 -62 -850 l-2 -395 -56 -115 c-63 -131 -80 -194 -74 -291 5 -84 18 -100 127 -153 l79 -39 7 -56 c16 -129 73 -417 181 -907 l115 -521 -116 -881 c-63 -485 -115 -884 -115 -887 0 -3 -10 -5 -22 -5 -19 0 -23 -6 -26 -38 -1 -20 -11 -104 -22 -186 -24 -178 -24 -186 -5 -186 11 0 13 -4 6 -17 -6 -10 -132 -954 -281 -2098 l-271 -2080 -89 -245 c-163 -451 -272 -812 -320 -1061 l-11 -56 -192 -6 c-171 -4 -205 -8 -307 -35 -190 -49 -311 -125 -344 -215 -22 -59 -49 -263 -41 -306 38 -210 456 -431 981 -520 67 -12 135 -21 153 -21 17 0 31 -5 31 -12 0 -8 67 -9 264 -4 335 9 477 32 621 101 87 42 140 85 165 135 20 40 50 217 50 297 0 207 -389 436 -922 543 -56 11 -57 11 -52 43 3 18 59 435 124 927 l118 895 86 209 c336 817 722 1913 819 2331 65 276 93 610 84 1010 -13 560 -81 1129 -232 1935 l-35 185 103 782 c56 430 106 785 109 789 4 4 53 1 110 -7 217 -27 575 -21 743 12 81 16 97 13 137 -30 25 -27 43 -60 57 -107 30 -98 68 -271 87 -394 27 -172 52 -266 103 -389 61 -145 90 -302 121 -661 14 -163 24 -208 76 -372 54 -171 63 -223 71 -426 6 -156 5 -164 -14 -177 -34 -24 -54 -92 -64 -223 -10 -114 -9 -127 9 -163 20 -39 20 -41 1 -162 -10 -67 -26 -196 -34 -287 -18 -186 -25 -218 -101 -452 -47 -145 -160 -588 -223 -875 -40 -177 -101 -627 -136 -996 -16 -174 -12 -213 30 -297 14 -27 25 -57 25 -67 0 -10 -20 -96 -44 -193 -62 -245 -73 -306 -96 -582 -43 -505 -91 -939 -136 -1238 -23 -148 -26 -211 -33 -606 l-8 -440 -82 -161 c-55 -110 -97 -179 -133 -219 -29 -33 -67 -78 -85 -100 l-32 -41 -58 9 c-32 6 -98 7 -148 4 -226 -14 -343 -114 -333 -284 2 -49 0 -62 -15 -71 -20 -13 -23 -67 -6 -105 7 -14 26 -32 43 -40 81 -38 115 -41 426 -40 298 1 307 2 400 28 52 14 135 37 184 51 l90 25 50 -33 c47 -30 56 -32 131 -31 44 1 136 6 205 12 148 12 221 35 231 72 11 38 10 145 0 156 -6 5 -6 28 0 59 13 64 -3 181 -38 279 -49 139 -56 226 -25 297 43 97 99 343 182 794 28 154 52 284 54 290 1 5 24 -58 50 -139 70 -218 132 -357 242 -539 54 -89 112 -199 130 -245 31 -83 62 -127 96 -138 31 -9 25 -99 -10 -155 -47 -71 -56 -76 -167 -84 -183 -13 -276 -60 -323 -163 -21 -47 -24 -64 -19 -123 5 -55 3 -68 -10 -73 -21 -8 -12 -89 12 -116 10 -11 50 -30 89 -41 63 -19 88 -21 231 -16 88 3 234 10 325 17 236 16 291 36 448 168 l74 62 71 0 c69 0 73 2 197 71 139 77 235 147 251 182 13 28 -22 129 -55 162 -12 12 -27 40 -34 62 -18 61 -85 156 -160 231 -71 69 -104 113 -162 216 -30 54 -33 65 -31 137 3 105 -7 136 -104 334 -46 94 -114 253 -150 355 -37 102 -82 214 -100 250 -66 131 -98 276 -115 523 -31 438 -27 415 -147 789 l-76 236 150 304 c113 229 191 370 320 578 253 410 307 504 394 691 169 360 275 643 344 914 57 223 58 438 3 685 -14 65 -23 148 -27 261 -5 143 -9 170 -24 187 -13 14 -20 40 -23 79 -2 32 -8 137 -14 233 -6 113 -19 217 -35 295 -14 66 -30 149 -35 185 -9 65 1 267 20 400 5 36 10 235 10 444 0 308 3 395 17 468 14 81 15 124 5 412 -15 410 -34 509 -138 707 -52 99 -104 154 -168 178 -62 23 -237 51 -322 51 -118 0 -278 59 -325 118 -21 27 -25 76 -8 119 6 15 10 60 10 99 -1 62 3 77 32 124 29 47 38 55 96 76 35 12 68 27 74 33 6 6 14 65 19 131 5 82 13 131 25 153 13 23 18 63 21 147 3 106 0 128 -36 285 -46 194 -70 270 -103 317 -47 69 -114 141 -153 166 -23 14 -80 57 -128 94 -106 84 -158 108 -251 115 -40 3 -74 9 -77 13 -6 10 -97 40 -113 39 -7 -1 -37 -7 -67 -14z m-1935 -241 c6 -3 12 -19 12 -37 3 -79 14 -100 114 -205 55 -57 99 -108 99 -113 0 -6 -10 -33 -22 -61 -17 -41 -19 -56 -11 -79 9 -23 8 -31 -7 -44 -30 -27 -72 -114 -65 -135 3 -10 37 -48 75 -83 l70 -64 -13 -100 -13 -99 -48 -44 c-26 -24 -58 -62 -71 -84 -22 -38 -90 -106 -389 -396 -60 -58 -130 -135 -156 -172 l-47 -67 -6 162 c-15 451 47 1048 139 1332 71 217 163 315 283 299 24 -3 49 -8 56 -10z m1157 -1132 c-2 -19 5 -38 27 -66 29 -37 30 -41 25 -110 -4 -51 -2 -83 10 -116 l15 -45 -23 30 c-13 17 -65 79 -114 140 l-91 110 77 42 c42 24 77 43 78 43 0 0 -1 -12 -4 -28z m-370 -644 c56 -117 56 -117 35 -131 -53 -33 -79 -35 -257 -16 -96 10 -205 18 -243 19 l-67 0 5 38 c3 20 12 81 19 134 12 91 16 101 57 154 38 50 97 107 218 212 l35 29 71 -161 c40 -88 97 -214 127 -278z m-1101 -744 c41 -15 135 -39 209 -54 l135 -28 -3 -28 c-6 -54 -142 -1099 -148 -1139 -6 -34 -22 26 -100 375 -108 478 -188 900 -172 900 2 0 38 -12 79 -26z m298 -2095 c142 -807 197 -1365 188 -1934 -5 -338 -16 -463 -58 -681 -53 -279 -297 -1001 -632 -1874 -188 -489 -220 -571 -223 -568 -1 2 101 788 227 1748 125 960 229 1751 229 1758 0 6 6 12 13 12 9 0 19 57 37 200 22 185 23 201 7 212 -15 12 -9 65 69 668 83 647 93 715 100 695 2 -5 21 -112 43 -236z m-1085 -6508 c-41 -310 -76 -566 -78 -569 -3 -2 -46 -1 -96 3 l-91 7 7 42 c14 86 77 328 129 497 52 168 197 591 201 586 1 -1 -31 -256 -72 -566z"/>
</g>
</svg>