<?xml version="1.0" standalone="no"?>
<!DOCTYPE svg PUBLIC "-//W3C//DTD SVG 20010904//EN"
 "http://www.w3.org/TR/2001/REC-SVG-20010904/DTD/svg10.dtd">
<svg version="1.0" xmlns="http://www.w3.org/2000/svg"
 width="500.000000pt" height="500.000000pt" viewBox="0 0 500.000000 500.000000"
 preserveAspectRatio="xMidYMid meet">
<metadata>
Created by potrace 1.16, written by Peter Selinger 2001-2019
</metadata>
<g transform="translate(0.000000,500.000000) scale(0.100000,-0.100000)"
fill="#ec5242" stroke="none">
<path d="M2669 3621 c-89 -24 -169 -69 -196 -110 l-23 -35 2 -719 3 -719 37
-34 38 -34 682 0 c554 1 694 3 742 15 157 37 295 148 363 291 35 74 38 86 41
191 4 93 1 122 -17 175 -42 127 -138 241 -252 298 -96 49 -161 63 -269 58
l-95 -5 -19 61 c-85 275 -317 490 -611 567 -95 25 -331 25 -426 0z"/>
<path d="M2237 3373 c-17 -20 -34 -178 -63 -602 -17 -242 -17 -260 0 -420 23
-217 45 -363 58 -378 15 -18 63 -16 82 3 9 8 16 17 16 20 0 2 11 82 25 176 46
317 45 408 -16 1066 -11 124 -23 152 -64 152 -12 0 -29 -8 -38 -17z"/>
<path d="M1710 3260 c-11 -11 -20 -25 -20 -32 0 -6 -12 -147 -26 -312 -30
-344 -29 -472 6 -741 23 -178 35 -215 73 -215 47 0 57 19 73 135 47 355 52
443 34 641 -6 60 -17 186 -26 279 -8 94 -17 184 -20 202 -9 60 -56 81 -94 43z"/>
<path d="M1977 3205 c-19 -18 -23 -43 -47 -302 -22 -232 -26 -482 -10 -608 33
-257 41 -309 51 -321 15 -18 63 -18 78 0 13 16 22 65 51 286 31 240 27 380
-26 815 -10 89 -18 123 -31 133 -22 16 -48 15 -66 -3z"/>
<path d="M1457 3163 c-19 -22 -23 -43 -47 -283 -26 -249 -25 -451 0 -672 11
-95 23 -185 26 -201 9 -43 68 -64 94 -33 12 15 35 161 66 416 l17 145 -27 255
c-35 324 -42 362 -63 378 -23 17 -47 15 -66 -5z"/>
<path d="M941 2953 c-18 -15 -25 -46 -47 -193 -27 -180 -28 -270 -4 -440 5
-36 14 -112 20 -169 10 -107 25 -141 60 -141 41 0 49 21 69 180 48 382 48 373
0 643 -19 107 -24 119 -46 128 -31 11 -27 12 -52 -8z"/>
<path d="M1193 2898 c-22 -28 -63 -274 -63 -377 0 -70 17 -250 41 -441 11 -87
27 -120 59 -120 46 0 59 51 90 380 6 58 13 123 16 146 9 63 -44 382 -68 411
-13 17 -63 17 -75 1z"/>
<path d="M692 2817 c-19 -23 -52 -209 -52 -294 0 -90 34 -333 51 -364 11 -22
52 -25 67 -6 21 26 57 261 56 372 0 109 -29 260 -56 293 -14 16 -53 16 -66 -1z"/>
<path d="M930 1723 c-41 -21 -60 -54 -60 -106 0 -45 39 -92 86 -102 65 -15 79
-22 82 -43 3 -19 -1 -22 -36 -22 -23 0 -49 8 -63 19 -24 19 -25 19 -52 -5 -35
-30 -32 -52 12 -81 27 -18 48 -23 103 -23 63 0 72 3 98 29 34 33 45 68 36 115
-8 44 -32 63 -108 91 -62 23 -86 44 -51 47 35 3 57 -3 75 -19 17 -15 20 -15
48 12 17 16 30 34 30 39 0 6 -16 22 -35 35 -47 32 -119 38 -165 14z"/>
<path d="M1255 1722 c-42 -27 -65 -55 -81 -99 -29 -82 -7 -181 52 -233 30 -26
42 -30 92 -30 109 0 157 58 157 190 0 83 -18 126 -67 163 -38 29 -115 33 -153
9z m109 -98 c21 -21 30 -58 23 -101 -11 -68 -65 -95 -107 -53 -25 25 -28 114
-4 148 18 26 65 30 88 6z"/>
<path d="M2644 1726 c-109 -48 -134 -233 -45 -326 36 -38 42 -40 95 -40 65 0
105 17 131 56 18 27 18 28 -11 51 -36 28 -46 29 -69 3 -18 -20 -51 -26 -71
-12 -35 23 -46 120 -18 160 19 27 78 31 93 5 8 -16 12 -16 50 2 23 10 41 21
41 25 0 18 -46 64 -76 76 -41 17 -80 17 -120 0z"/>
<path d="M3223 1714 c-55 -36 -78 -88 -78 -174 1 -116 56 -180 155 -180 105 0
155 61 155 190 0 116 -47 179 -142 187 -40 4 -55 0 -90 -23z m115 -83 c18 -11
32 -77 25 -115 -12 -63 -63 -86 -103 -46 -25 25 -28 114 -4 148 16 23 57 29
82 13z"/>
<path d="M1522 1593 c3 -151 14 -184 68 -217 41 -24 130 -21 164 5 49 38 56
66 56 214 l0 135 -45 0 -45 0 0 -121 c0 -136 -7 -159 -50 -159 -50 0 -60 28
-60 162 l0 118 -46 0 -46 0 4 -137z"/>
<path d="M1874 1717 c-2 -7 -3 -89 -2 -182 l3 -170 42 -3 42 -3 3 97 3 97 60
-96 60 -96 43 -1 42 0 0 185 0 185 -45 0 -44 0 -3 -92 -3 -93 -58 93 c-58 91
-59 92 -98 92 -23 0 -42 -5 -45 -13z"/>
<path d="M2230 1545 l0 -185 78 0 c101 0 155 26 189 90 48 90 19 220 -57 261
-26 14 -56 19 -122 19 l-88 0 0 -185z m171 76 c20 -16 24 -29 24 -70 0 -59
-21 -87 -73 -97 l-32 -6 0 96 0 96 29 0 c16 0 39 -9 52 -19z"/>
<path d="M2880 1545 l0 -185 130 0 130 0 0 45 0 45 -85 0 -85 0 0 140 0 140
-45 0 -45 0 0 -185z"/>
<path d="M3500 1613 c0 -139 10 -181 51 -223 28 -27 37 -30 93 -30 50 0 69 5
91 22 45 35 55 74 55 218 l0 130 -45 0 -45 0 0 -124 c0 -135 -7 -156 -55 -156
-44 0 -55 33 -55 162 l0 118 -45 0 -45 0 0 -117z"/>
<path d="M3857 1723 c-9 -8 -9 -326 -1 -347 10 -25 143 -22 194 4 73 37 107
120 89 214 -19 101 -69 136 -195 136 -44 0 -84 -3 -87 -7z m167 -96 c35 -25
37 -127 4 -155 -7 -6 -30 -13 -50 -17 l-38 -7 0 96 0 96 33 0 c18 0 41 -6 51
-13z"/>
</g>
</svg>
