<?xml version="1.0" standalone="no"?>
<!DOCTYPE svg PUBLIC "-//W3C//DTD SVG 20010904//EN"
 "http://www.w3.org/TR/2001/REC-SVG-20010904/DTD/svg10.dtd">
<svg version="1.0" xmlns="http://www.w3.org/2000/svg"
 width="500.000000pt" height="500.000000pt" viewBox="0 0 500.000000 500.000000"
 preserveAspectRatio="xMidYMid meet">
<metadata>
Created by potrace 1.16, written by Peter Selinger 2001-2019
</metadata>
<g transform="translate(0.000000,500.000000) scale(0.100000,-0.100000)"
fill="#ED721D" stroke="none">
<path d="M940 3510 l0 -200 45 0 45 0 1 103 c0 114 -2 117 43 -45 l17 -58 47
0 48 0 31 113 32 112 0 -112 1 -113 45 0 45 0 0 200 0 201 -66 -3 -67 -3 -31
-112 c-17 -61 -34 -114 -37 -117 -3 -4 -16 33 -29 81 -45 173 -32 153 -105
153 l-65 0 0 -200z"/>
<path d="M1377 3624 c-11 -11 -8 -229 3 -258 14 -38 54 -59 108 -57 26 1 72 3
102 4 l55 2 3 144 c3 155 -2 171 -47 171 -45 0 -51 -15 -51 -127 0 -93 -2
-103 -20 -113 -28 -15 -59 -4 -65 23 -3 12 -6 65 -8 117 l-2 95 -35 3 c-20 2
-39 0 -43 -4z"/>
<path d="M1734 3616 c-40 -18 -64 -52 -64 -92 0 -50 28 -74 106 -93 78 -20 94
-44 32 -49 -29 -2 -39 1 -48 17 -8 17 -21 21 -56 21 -45 0 -46 -1 -40 -27 9
-40 60 -83 99 -85 87 -4 137 11 162 48 17 27 20 76 5 104 -11 20 -71 45 -133
55 -46 7 -45 29 1 33 22 2 34 -2 38 -12 4 -11 19 -16 50 -16 39 0 44 2 44 23
0 65 -116 107 -196 73z"/>
<path d="M1967 3624 c-4 -4 -7 -76 -7 -161 l0 -153 45 0 46 0 -3 158 -3 157
-35 3 c-20 2 -39 0 -43 -4z"/>
<path d="M2151 3613 c-55 -29 -75 -64 -79 -141 -3 -74 14 -116 63 -148 34 -22
120 -22 163 0 31 16 62 61 62 91 0 21 -88 22 -96 0 -9 -22 -41 -37 -63 -30
-57 18 -51 147 7 162 20 5 30 0 51 -26 21 -25 34 -31 64 -31 31 0 37 3 37 20
0 31 -26 75 -55 94 -40 26 -113 31 -154 9z"/>
<path d="M2387 3623 c-4 -3 -7 -75 -7 -160 l0 -153 45 0 45 0 0 154 c0 131 -2
155 -16 160 -21 8 -59 8 -67 -1z"/>
<path d="M2573 3619 c-38 -11 -73 -52 -73 -85 0 -22 4 -24 45 -24 32 0 45 4
45 14 0 26 60 36 79 12 13 -15 -4 -26 -42 -26 -38 0 -98 -21 -118 -41 -29 -29
-26 -103 6 -134 13 -14 37 -26 52 -27 47 -2 87 3 101 14 8 7 12 7 12 -1 0 -6
18 -11 45 -11 l45 0 0 123 c0 137 -8 159 -66 183 -37 16 -83 17 -131 3z"/>
<path d="M2807 3623 c-4 -3 -7 -75 -7 -160 l0 -153 45 0 45 0 0 98 c0 66 4
104 13 116 16 22 65 25 78 5 5 -8 9 -60 9 -116 l0 -103 45 0 45 0 0 124 c0
119 -1 126 -26 155 -30 36 -79 48 -126 32 -21 -8 -35 -8 -42 -1 -11 11 -69 14
-79 3z"/>
<path d="M3163 3615 c-45 -19 -67 -57 -60 -102 9 -50 25 -64 104 -83 78 -19
93 -43 30 -48 -32 -3 -39 0 -44 17 -4 18 -13 21 -54 21 -27 0 -49 -2 -49 -5 0
-22 33 -76 54 -90 34 -22 132 -23 174 -1 38 20 52 44 52 88 0 62 -27 81 -147
103 -38 8 -43 22 -11 34 28 10 58 3 58 -15 0 -10 13 -14 45 -14 39 0 45 3 45
21 0 34 -18 56 -60 73 -49 19 -94 20 -137 1z"/>
<path d="M940 3060 l0 -159 31 -36 c73 -83 226 -67 270 28 15 35 19 66 19 185
l0 142 -45 0 -45 0 0 -138 c0 -150 -7 -174 -55 -186 -25 -6 -64 7 -77 28 -4 6
-8 75 -8 154 l0 142 -45 0 -45 0 0 -160z"/>
<path d="M1290 2980 l0 -160 45 0 45 0 0 103 c0 90 3 106 20 122 13 12 27 15
45 11 25 -6 25 -7 25 -121 l0 -115 51 0 51 0 -3 129 c-4 121 -6 131 -28 155
-29 31 -81 42 -127 28 -20 -6 -36 -6 -40 -1 -3 5 -23 9 -45 9 l-39 0 0 -160z"/>
<path d="M1600 2980 l0 -160 45 0 45 0 0 160 0 160 -45 0 -45 0 0 -160z"/>
<path d="M1795 3126 c-58 -26 -79 -60 -83 -135 -7 -115 41 -171 146 -171 68 0
106 22 132 75 69 143 -57 292 -195 231z m93 -74 c18 -12 32 -69 25 -104 -11
-58 -84 -73 -104 -21 -31 81 20 162 79 125z"/>
<path d="M2027 3133 c-4 -3 -7 -75 -7 -160 l0 -153 50 0 50 0 0 104 c0 110 9
136 49 136 34 0 41 -21 41 -132 l0 -108 50 0 50 0 0 110 c0 127 -13 171 -59
194 -35 19 -69 20 -108 5 -19 -7 -29 -7 -31 0 -4 12 -74 15 -85 4z"/>
<path d="M1628 2485 c-55 -21 -106 -62 -134 -110 -22 -38 -54 -160 -129 -495
-8 -36 -26 -110 -39 -165 l-24 -100 -1 423 -1 422 -180 0 -180 0 0 -570 0
-570 179 0 179 0 36 148 c20 81 69 293 111 472 76 327 84 350 125 350 9 0 24
-6 33 -12 15 -12 17 -55 19 -483 l3 -470 182 -3 182 -2 11 40 c10 38 210 890
210 896 0 1 7 10 16 18 21 22 50 20 74 -4 19 -19 20 -33 20 -399 0 -414 2
-427 59 -500 38 -47 116 -90 179 -98 101 -12 217 49 263 138 11 22 38 119 60
217 23 97 52 224 66 282 13 58 32 139 41 180 l17 75 5 -350 c5 -339 6 -351 27
-392 46 -86 150 -153 237 -153 87 0 188 57 236 135 12 19 36 101 55 182 45
203 105 458 120 518 11 43 13 -8 14 -367 l1 -418 180 0 180 0 0 570 0 570
-179 0 -179 0 -7 -32 c-4 -18 -22 -96 -40 -173 -30 -123 -60 -251 -150 -638
-13 -54 -29 -104 -35 -112 -15 -18 -61 -20 -78 -3 -9 9 -12 127 -12 469 0 252
-3 464 -6 473 -5 14 -31 16 -184 16 l-178 0 -27 -112 c-15 -62 -40 -169 -56
-238 -16 -69 -36 -152 -44 -185 -18 -75 -48 -203 -75 -319 -24 -102 -32 -116
-70 -116 -60 0 -60 -1 -60 421 0 365 -1 386 -21 429 -43 96 -123 150 -232 158
-60 4 -73 2 -131 -27 -59 -29 -96 -64 -125 -118 -6 -12 -40 -149 -76 -305 -36
-156 -73 -317 -84 -358 l-19 -75 -1 331 c-1 363 -4 387 -62 457 -50 61 -110
90 -193 93 -45 3 -85 -1 -108 -11z"/>
</g>
</svg>
