<?xml version="1.0" standalone="no"?>
<!DOCTYPE svg PUBLIC "-//W3C//DTD SVG 20010904//EN"
 "http://www.w3.org/TR/2001/REC-SVG-20010904/DTD/svg10.dtd">
<svg version="1.0" xmlns="http://www.w3.org/2000/svg"
 width="500.000000pt" height="500.000000pt" viewBox="0 0 500.000000 500.000000"
 preserveAspectRatio="xMidYMid meet">
<metadata>
Created by potrace 1.16, written by Peter Selinger 2001-2019
</metadata>
<g transform="translate(0.000000,500.000000) scale(0.100000,-0.100000)"
fill="#ec5242" stroke="none">
<path d="M1160 3780 l0 -80 73 0 72 0 0 -347 0 -348 93 -3 92 -3 0 351 0 350
75 0 75 0 0 80 0 80 -240 0 -240 0 0 -80z"/>
<path d="M2070 3485 c0 -412 1 -419 59 -468 39 -33 91 -43 142 -28 l39 12 0
70 0 69 -26 -6 c-17 -4 -29 -2 -35 7 -5 8 -9 173 -9 367 l0 352 -85 0 -85 0 0
-375z"/>
<path d="M2340 3480 c0 -365 1 -383 21 -421 34 -67 120 -96 195 -64 l35 14 -3
63 -3 63 -32 -3 -33 -3 0 365 0 366 -90 0 -90 0 0 -380z"/>
<path d="M1653 3614 c-33 -14 -33 -15 -33 -83 0 -39 4 -72 8 -75 4 -2 28 2 54
10 77 26 159 -9 171 -72 4 -24 3 -24 -19 -10 -33 22 -97 30 -136 17 -40 -13
-92 -64 -107 -104 -14 -36 -14 -141 -1 -189 20 -72 90 -128 157 -128 15 0 47
9 71 20 23 10 42 15 42 10 0 -6 38 -10 86 -10 l85 0 -3 223 c-3 207 -5 225
-26 272 -48 104 -101 135 -229 134 -52 0 -101 -6 -120 -15z m191 -310 c11 -11
16 -35 16 -79 0 -58 -3 -66 -25 -81 -34 -22 -73 -11 -86 24 -13 33 -7 116 11
137 16 20 64 19 84 -1z"/>
<path d="M3053 3604 c-32 -25 -33 -25 -33 -5 0 20 -6 21 -85 21 l-85 0 0 -310
0 -310 85 0 85 0 0 215 c0 216 0 216 25 240 13 14 31 25 40 25 9 0 27 -11 40
-25 25 -24 25 -24 25 -240 l0 -215 85 0 85 0 0 243 c0 233 -1 244 -24 293 -35
75 -64 94 -145 94 -56 0 -71 -4 -98 -26z"/>
<path d="M3581 3604 c-30 -25 -31 -25 -31 -5 0 20 -5 21 -85 21 l-85 0 0 -310
0 -310 85 0 85 0 0 199 c0 231 3 255 36 270 34 15 41 14 64 -9 19 -19 20 -33
20 -240 l0 -220 85 0 85 0 0 260 c0 288 -2 297 -63 344 -28 22 -45 26 -100 26
-56 0 -70 -4 -96 -26z"/>
<path d="M2620 3310 l0 -310 85 0 85 0 0 310 0 310 -85 0 -85 0 0 -310z"/>
<path d="M1215 2928 c-5 -15 -25 -637 -25 -770 l0 -88 90 0 90 0 1 278 c1 152
5 259 9 237 3 -22 19 -89 33 -150 15 -60 29 -122 32 -137 5 -26 9 -28 50 -28
43 0 44 1 50 38 10 62 57 246 66 257 5 5 9 -103 9 -243 l0 -252 91 0 91 0 -7
253 c-4 138 -10 333 -14 432 l-6 180 -70 0 -70 0 -26 -105 c-46 -183 -82 -332
-99 -415 l-17 -80 -8 50 c-4 28 -20 97 -35 155 -16 58 -33 132 -39 165 -6 33
-22 98 -35 145 l-23 85 -67 3 c-47 2 -67 -1 -71 -10z"/>
<path d="M2500 2701 c-59 -18 -92 -43 -111 -84 -35 -79 -17 -176 41 -219 14
-10 50 -21 80 -25 30 -3 61 -10 68 -16 19 -15 15 -101 -7 -128 -15 -18 -28
-23 -67 -22 -27 0 -66 8 -86 16 -20 8 -39 13 -42 9 -3 -3 -6 -36 -6 -73 l0
-68 52 -16 c139 -41 271 1 307 98 14 35 14 137 1 171 -13 36 -61 62 -127 70
-31 4 -63 12 -70 18 -29 24 -6 104 33 114 28 7 123 1 147 -10 15 -7 17 -1 17
67 l0 75 -40 16 c-42 17 -145 20 -190 7z"/>
<path d="M3179 2696 c-114 -41 -163 -134 -163 -311 0 -209 74 -313 229 -323
38 -2 82 1 98 7 26 10 27 13 27 81 l0 70 -27 -7 c-103 -27 -153 29 -153 171 0
82 19 139 51 157 12 6 45 9 75 7 l54 -5 0 72 c0 67 -2 73 -25 83 -34 16 -121
14 -166 -2z"/>
<path d="M1850 2445 c0 -280 3 -297 59 -350 26 -24 41 -30 94 -33 53 -3 67 0
99 21 34 24 36 24 41 6 5 -17 15 -19 91 -19 l86 0 0 315 0 316 -87 -3 -88 -3
-5 -232 c-3 -135 -9 -236 -15 -241 -22 -21 -52 -22 -76 -3 -24 19 -24 20 -27
250 l-3 231 -85 0 -84 0 0 -255z"/>
<path d="M2795 2687 c-3 -7 -4 -147 -3 -312 l3 -300 88 -3 87 -3 0 316 0 315
-85 0 c-60 0 -87 -4 -90 -13z"/>
<path d="M1167 2013 c-3 -4 10 -171 29 -370 18 -199 34 -390 36 -425 l3 -63
72 -3 72 -3 12 43 c6 24 15 68 19 98 7 44 52 254 63 294 2 5 11 -31 20 -80 19
-98 54 -258 68 -316 l10 -38 69 0 69 0 6 53 c15 134 36 391 45 549 6 95 13
194 16 221 l7 47 -91 0 -90 0 -6 -32 c-3 -18 -10 -150 -16 -293 -6 -142 -12
-261 -14 -263 -2 -1 -7 19 -10 45 -4 26 -14 83 -23 126 -13 65 -19 78 -39 83
-51 13 -57 5 -85 -116 -21 -90 -28 -106 -29 -75 -1 22 -9 148 -18 280 l-17
240 -87 3 c-47 1 -89 -1 -91 -5z"/>
<path d="M2727 2013 c-4 -3 -7 -199 -7 -435 l0 -428 90 0 90 0 0 145 c0 138 1
145 20 145 44 0 80 -79 80 -178 0 -20 3 -54 6 -74 l7 -38 93 0 c52 0 94 3 94
6 0 27 -24 159 -36 196 -15 46 -70 108 -97 108 -6 0 5 14 26 31 49 41 64 72
77 161 6 40 13 83 16 96 4 22 3 22 -90 22 l-94 0 -7 -77 c-10 -124 -15 -151
-37 -178 -10 -14 -28 -25 -39 -25 -18 0 -19 10 -19 265 l0 265 -83 0 c-46 0
-87 -3 -90 -7z"/>
<path d="M1932 1771 c-66 -23 -85 -41 -119 -110 -26 -52 -27 -63 -27 -196 0
-131 2 -143 26 -190 62 -119 170 -160 327 -123 l51 11 0 74 c0 40 -2 73 -4 73
-2 0 -20 -7 -39 -15 -47 -19 -107 -19 -135 1 -26 18 -52 65 -52 94 0 19 6 20
131 20 l132 0 -6 88 c-10 162 -65 256 -162 281 -56 14 -60 14 -123 -8z"/>
<path d="M2405 1776 c-93 -29 -126 -72 -151 -195 -29 -146 -5 -294 59 -367 61
-70 179 -93 295 -59 l52 16 0 64 c0 35 -4 66 -9 69 -5 3 -25 -1 -45 -9 -73
-31 -136 -13 -167 47 -35 68 -34 68 111 68 l130 0 0 33 c0 63 -22 202 -37 232
-26 51 -65 85 -117 100 -58 18 -68 18 -121 1z"/>
</g>
</svg>
