<?xml version="1.0" standalone="no"?>
<!DOCTYPE svg PUBLIC "-//W3C//DTD SVG 20010904//EN"
 "http://www.w3.org/TR/2001/REC-SVG-20010904/DTD/svg10.dtd">
<svg version="1.0" xmlns="http://www.w3.org/2000/svg"
 width="500.000000pt" height="500.000000pt" viewBox="0 0 500.000000 500.000000"
 preserveAspectRatio="xMidYMid meet">
<metadata>
Created by potrace 1.16, written by Peter Selinger 2001-2019
</metadata>
<g transform="translate(0.000000,500.000000) scale(0.100000,-0.100000)"
fill="#fff" stroke="none">
<path d="M2720 3278 c0 -8 -9 -14 -19 -14 -11 0 -17 4 -15 8 3 4 -3 8 -13 8
-26 0 -58 -41 -54 -69 3 -22 0 -23 -27 -18 -27 5 -29 4 -26 -16 3 -15 -1 -12
-13 11 -16 32 -51 47 -39 17 3 -8 9 -21 12 -29 6 -15 -11 -16 -33 -3 -7 5 -13
6 -13 2 0 -3 -13 1 -30 10 -39 20 -44 19 -60 -10 -12 -23 -15 -24 -30 -10 -25
23 -30 18 -26 -22 2 -21 2 -32 -1 -25 -2 6 -9 12 -15 12 -6 0 -8 -7 -4 -15 3
-8 -5 -26 -18 -40 -15 -16 -23 -36 -21 -51 2 -18 -2 -24 -14 -22 -10 2 -15 -3
-13 -14 2 -10 -3 -18 -10 -18 -9 0 -9 -3 0 -12 7 -7 12 -21 12 -31 0 -13 5
-17 14 -14 10 4 13 1 9 -9 -3 -9 2 -14 18 -15 18 -1 20 -2 6 -6 -14 -4 -16 -8
-6 -19 9 -11 8 -14 -4 -14 -9 0 -21 8 -27 18 -11 16 -11 16 -6 -1 5 -15 1 -18
-21 -15 -37 4 -39 -15 -3 -45 16 -14 30 -31 30 -38 0 -6 8 -18 18 -25 11 -9
13 -13 4 -14 -7 0 -10 -4 -7 -10 3 -6 -1 -7 -9 -4 -9 3 -16 1 -16 -5 0 -6 6
-11 13 -11 7 0 19 -6 26 -12 6 -7 17 -13 23 -13 6 0 15 -11 20 -25 7 -20 7
-23 -3 -12 -25 23 -30 12 -9 -18 26 -36 18 -39 -14 -5 -13 13 -26 22 -29 18
-4 -3 -7 -1 -7 5 0 7 -5 12 -11 12 -6 0 -8 -10 -5 -22 3 -13 3 -17 0 -10 -8
18 -21 15 -27 -7 -3 -13 0 -18 8 -15 7 3 16 1 19 -4 3 -6 -1 -12 -9 -16 -19
-7 -19 -26 0 -26 8 0 15 -4 15 -10 0 -5 -7 -7 -15 -4 -8 4 -15 1 -15 -5 0 -11
12 -15 42 -12 13 2 16 -3 11 -15 -5 -13 -2 -15 18 -9 18 5 20 4 9 -4 -13 -9
-12 -12 5 -25 11 -9 23 -16 27 -16 4 0 5 -7 2 -15 -5 -12 -2 -13 14 -8 12 5
20 11 19 15 -1 4 7 14 18 22 20 15 20 15 -1 16 -27 0 -36 -10 -23 -27 6 -7 8
-13 4 -13 -11 0 -34 33 -35 48 0 8 8 12 18 10 9 -2 23 3 30 12 11 13 11 13 6
-1 -3 -10 2 -19 12 -23 12 -4 15 -2 10 9 -3 8 -1 15 4 15 17 0 19 -17 5 -36
-25 -33 -15 -40 13 -8 23 26 93 74 108 74 3 0 4 -6 2 -12 -3 -7 -9 -13 -15
-13 -5 0 -17 -8 -27 -17 -10 -10 -13 -18 -7 -18 5 0 13 5 16 10 12 19 26 10
19 -12 -3 -13 -3 -19 2 -15 5 4 13 22 19 40 13 41 47 48 69 14 21 -32 29 -218
9 -210 -15 6 -18 -13 -3 -22 6 -3 10 -18 10 -33 0 -19 -3 -23 -9 -13 -6 9 -11
10 -15 2 -4 -6 -4 -11 0 -11 3 0 1 -7 -6 -15 -10 -12 -9 -16 4 -21 9 -3 14
-10 11 -14 -3 -5 0 -12 6 -16 8 -5 8 -9 -1 -14 -9 -6 -8 -16 5 -41 14 -26 17
-51 13 -129 -6 -113 -17 -140 -58 -140 -48 0 -60 29 -60 142 0 73 3 97 13 95
7 -1 12 9 12 28 0 25 5 31 29 35 37 6 44 25 16 40 -17 9 -26 8 -44 -3 -19 -13
-24 -13 -41 0 -17 11 -17 15 -6 23 17 10 23 38 10 46 -5 3 -9 13 -9 22 1 15 2
15 11 -1 13 -23 29 -13 29 19 0 18 5 24 23 24 23 0 47 17 47 32 0 4 -12 8 -27
8 -21 0 -24 3 -15 12 15 15 16 68 2 68 -6 0 -22 -11 -35 -25 -14 -13 -25 -21
-25 -17 0 9 -50 32 -51 24 0 -4 -2 -23 -4 -43 -3 -30 0 -38 19 -49 16 -8 22
-18 19 -31 -8 -30 -31 -23 -25 7 4 23 2 25 -17 19 -15 -5 -21 -2 -21 9 0 18
-16 21 -25 6 -3 -6 -17 -7 -31 -4 -20 5 -24 2 -24 -15 0 -14 -6 -21 -20 -21
-17 0 -19 -5 -13 -31 4 -24 2 -34 -10 -41 -10 -5 -17 -16 -17 -23 0 -17 23
-19 50 -5 19 10 19 9 2 -19 -23 -41 -8 -50 27 -17 l29 27 28 -26 c21 -20 25
-28 15 -34 -10 -6 -13 -40 -12 -136 2 -136 8 -161 56 -205 22 -21 36 -25 88
-25 101 1 142 41 153 152 6 58 6 58 40 59 l34 1 0 -104 0 -103 45 0 45 0 0
130 0 130 25 0 c23 0 25 4 25 40 0 36 -2 40 -25 40 -14 0 -25 1 -25 3 0 1 7
26 14 55 8 28 10 50 5 46 -15 -9 -10 53 8 91 12 25 23 35 40 35 23 0 43 26 43
55 0 18 -38 54 -57 55 -23 0 -46 -48 -39 -83 4 -22 1 -40 -9 -52 -13 -19 -14
-17 -15 23 0 23 -4 42 -9 42 -10 0 -16 -23 -27 -102 -4 -34 -10 -45 -20 -41
-10 4 -12 -4 -9 -34 4 -26 2 -34 -5 -23 -7 12 -12 12 -22 2 -9 -9 -9 -15 0
-24 19 -19 15 -48 -8 -48 -17 0 -20 -7 -20 -40 0 -33 3 -40 20 -40 11 0 20 -6
20 -12 0 -8 -14 -13 -35 -13 -35 0 -35 0 -35 45 0 26 5 51 11 57 7 7 6 15 -4
25 -9 9 -13 25 -10 43 4 19 2 26 -6 21 -6 -4 -11 -2 -11 3 0 6 4 11 8 11 5 0
14 11 20 26 7 14 28 32 47 40 19 8 35 19 35 24 0 13 -10 12 -40 -3 -25 -13
-26 -13 -22 20 3 24 0 33 -11 33 -19 0 -26 -19 -20 -51 2 -13 0 -35 -6 -49 -8
-20 -10 -5 -10 66 -1 50 -4 112 -7 138 -6 42 -5 46 14 46 23 0 42 -27 42 -59
0 -12 5 -21 11 -21 6 0 9 7 5 15 -3 8 0 15 6 15 9 0 9 3 0 12 -21 21 -13 29
13 12 16 -10 32 -13 47 -8 13 4 29 7 36 5 7 -1 15 5 18 14 3 8 17 15 30 15 12
0 29 9 37 21 8 11 29 22 47 24 31 4 32 3 16 -14 -20 -22 -20 -28 -1 -28 8 0
12 4 9 9 -3 4 2 11 10 14 9 3 13 11 9 17 -3 5 -1 7 5 4 19 -12 42 5 42 30 0
19 -4 24 -16 19 -8 -3 -12 -2 -9 3 3 5 -4 16 -16 24 -20 15 -34 67 -18 67 5 0
9 6 9 14 0 16 -21 26 -56 26 -18 0 -28 8 -37 28 -8 19 -18 27 -32 24 -19 -3
-19 -2 -2 12 14 10 15 15 5 19 -7 3 1 5 17 5 17 0 24 -2 17 -5 -6 -2 -10 -9
-6 -14 8 -14 24 -11 24 5 0 8 7 16 15 20 9 3 15 0 15 -8 0 -9 9 -12 28 -9 15
2 33 5 40 5 15 2 16 15 0 24 -8 5 -7 10 4 18 21 16 30 102 11 118 -8 6 -12 20
-10 30 7 23 -20 51 -43 45 -15 -4 -17 1 -14 33 2 27 -2 42 -15 54 -17 15 -19
15 -25 1 -3 -9 -10 -13 -16 -10 -5 3 -10 1 -10 -4 0 -6 -7 -11 -15 -11 -18 0
-18 5 -5 30 15 27 -17 36 -38 9 -20 -24 -52 -17 -45 10 5 19 -21 36 -38 26 -5
-4 -6 1 -3 9 3 8 12 12 20 9 19 -7 18 5 -2 24 -8 9 -13 24 -11 34 6 24 -21 26
-38 3 -14 -19 -55 -11 -55 11 0 8 -4 17 -10 20 -5 3 -10 0 -10 -7z"/>
<path d="M1926 3052 c-4 -6 -13 -9 -20 -6 -8 3 -17 -3 -20 -14 -5 -14 -14 -18
-35 -16 -32 4 -91 -41 -91 -69 0 -20 -4 -21 -32 -6 -24 13 -31 8 -22 -15 5
-13 9 -14 20 -5 11 9 14 9 14 0 0 -6 -7 -14 -15 -17 -8 -4 -13 -10 -10 -14 7
-11 -20 -72 -28 -63 -4 3 -7 1 -7 -7 0 -10 -3 -10 -17 1 -15 13 -16 11 -9 -15
6 -26 6 -27 -9 -12 -19 19 -25 19 -45 5 -12 -8 -12 -12 -2 -16 10 -4 10 -8 2
-19 -13 -15 -5 -34 15 -34 14 0 10 -35 -8 -58 -13 -16 -8 -20 33 -28 28 -6 32
-5 27 9 -8 23 -1 21 24 -4 11 -11 15 -19 7 -18 -26 3 -38 -1 -58 -23 -14 -15
-19 -17 -15 -7 4 10 0 19 -10 23 -24 9 -37 -2 -35 -32 1 -15 1 -31 0 -37 -1
-5 -1 -25 0 -43 1 -26 -3 -35 -19 -39 -12 -3 -21 -8 -21 -12 0 -13 48 -27 68
-20 12 5 29 6 37 3 8 -4 22 -1 30 6 8 7 15 9 15 5 0 -4 -10 -15 -22 -25 -18
-14 -20 -20 -10 -33 10 -12 10 -16 -3 -21 -8 -3 -15 -10 -15 -17 0 -7 7 -8 18
-4 9 4 25 8 35 9 10 0 21 6 25 12 4 6 29 13 55 16 58 7 76 -7 72 -54 -2 -18
-4 -40 -4 -48 -1 -8 -13 -20 -27 -27 -21 -10 -26 -9 -31 5 -4 9 -11 20 -17 24
-16 11 -46 10 -46 -2 0 -5 8 -10 19 -10 22 0 36 -15 50 -53 10 -26 9 -28 -11
-25 -11 2 -23 -3 -25 -9 -3 -8 4 -13 15 -13 24 0 55 -27 49 -44 -2 -6 -11 -10
-21 -8 -20 4 -20 -7 -2 -33 12 -18 9 -29 -23 -102 -20 -46 -39 -83 -42 -83 -6
0 -79 179 -79 195 0 5 7 -1 16 -13 17 -25 44 -29 44 -7 0 9 6 12 15 9 22 -9
19 22 -5 46 -11 11 -27 20 -35 20 -18 0 -14 69 6 113 11 25 10 30 -9 50 -18
18 -25 20 -41 10 -16 -10 -20 -9 -24 8 -3 12 -14 19 -29 20 -23 0 -23 0 -1 9
22 9 50 49 36 51 -23 3 -49 -4 -59 -17 -10 -12 -13 -10 -22 13 -6 16 -14 40
-18 56 -3 15 -14 32 -23 37 -14 8 -13 9 5 10 24 0 48 31 56 73 4 23 2 27 -16
27 -31 0 -66 -28 -66 -53 -1 -21 -2 -21 -23 6 -13 15 -26 27 -30 27 -11 0 -8
-58 3 -65 15 -9 12 -19 -10 -45 -22 -25 -26 -50 -9 -50 21 0 49 21 50 38 1 10
4 7 8 -8 4 -15 15 -26 29 -28 30 -4 28 -22 -2 -22 -22 0 -36 -16 -36 -41 0
-15 29 -10 48 9 18 18 19 18 30 -10 14 -37 3 -73 -23 -73 -26 0 -35 -52 -11
-61 11 -4 14 -14 10 -28 -8 -32 16 -49 50 -36 14 5 26 6 26 1 0 -5 -7 -11 -15
-15 -9 -3 -12 -12 -9 -23 5 -17 5 -17 -6 0 -6 9 -15 15 -21 12 -5 -4 -9 -1 -9
4 0 6 -10 1 -21 -10 -12 -12 -24 -17 -28 -13 -3 5 -19 10 -34 11 -22 2 -27 -2
-23 -13 3 -9 9 -28 13 -42 5 -24 4 -25 -9 -14 -25 20 -29 57 -11 98 9 22 16
42 15 47 -1 4 3 7 8 7 6 0 10 9 10 20 0 11 5 29 12 39 9 15 9 25 0 45 -23 52
-59 19 -66 -62 -2 -18 -7 -36 -10 -40 -4 -4 -6 107 -4 245 2 196 0 254 -9 258
-7 2 -13 16 -13 31 0 21 4 25 20 21 26 -7 35 9 17 28 -9 8 -18 20 -20 27 -4 9
-14 3 -31 -17 -30 -34 -32 -45 -11 -45 17 0 20 -16 5 -25 -5 -3 -6 -15 0 -29
4 -12 9 -105 10 -206 l1 -184 -21 19 c-15 14 -17 21 -8 32 8 11 7 17 -7 27
-10 7 -15 18 -12 23 4 6 -7 29 -24 53 -25 34 -35 41 -54 36 -13 -3 -27 -2 -30
4 -3 5 1 10 9 10 20 0 22 55 4 74 -18 17 -57 26 -64 15 -3 -5 -10 -7 -15 -3
-6 3 -19 -2 -30 -12 -11 -9 -29 -18 -42 -20 -12 -1 -24 -3 -27 -3 -3 -1 2 -6
10 -11 12 -8 10 -10 -8 -10 -15 0 -22 -5 -19 -12 2 -7 -3 -18 -11 -24 -14 -10
-14 -13 0 -32 8 -12 18 -19 23 -14 4 4 4 -3 1 -15 -8 -25 3 -30 22 -11 9 9 12
8 12 -4 0 -28 19 -30 43 -4 l23 24 41 -81 c23 -45 65 -109 93 -142 57 -66 86
-115 70 -115 -5 0 -10 5 -10 11 0 6 -6 9 -13 6 -13 -5 -39 17 -30 26 10 10
-51 56 -75 57 -35 0 -25 -41 13 -59 47 -22 74 -64 35 -54 -16 4 -19 2 -14 -11
4 -9 1 -16 -6 -16 -7 0 -10 -7 -6 -16 3 -9 -4 -30 -16 -47 -33 -46 -37 -140
-9 -194 40 -80 130 -113 204 -75 29 16 37 17 37 6 0 -10 13 -14 45 -14 l45 0
0 90 c0 87 1 90 23 90 12 0 29 5 37 10 13 9 13 11 0 20 -8 6 -25 9 -37 7 -20
-4 -23 0 -23 25 0 26 2 28 20 18 16 -9 20 -8 20 6 0 9 -9 18 -21 21 -16 4 -20
12 -16 30 2 13 0 26 -4 29 -13 8 -11 34 2 34 6 0 13 -9 16 -21 3 -11 34 -91
69 -176 l63 -156 -20 -38 c-10 -21 -19 -41 -19 -44 0 -3 21 -5 48 -5 l47 1 92
202 c51 111 96 211 100 222 6 18 5 18 -10 6 -20 -16 -23 -1 -4 18 10 11 8 12
-10 6 -19 -5 -23 -2 -23 14 0 11 5 23 10 26 6 3 10 11 10 16 0 6 -4 7 -10 4
-6 -4 -10 17 -10 54 0 59 6 71 25 52 9 -8 71 -16 103 -12 17 2 15 21 -2 21 -8
0 -16 7 -20 15 -8 22 11 18 31 -5 10 -11 30 -20 46 -20 24 0 27 3 22 20 -5 16
-3 19 11 13 14 -5 16 -3 11 11 -5 11 -3 15 5 10 16 -10 80 -6 91 5 7 7 1 14
-16 20 -34 13 -34 25 -2 39 26 12 37 56 11 46 -9 -3 -13 1 -13 13 1 11 -4 18
-15 17 -21 -2 -23 7 -5 25 10 12 9 13 -7 7 -17 -6 -17 -5 -5 10 11 13 11 18 2
21 -7 3 -13 13 -13 24 0 12 -7 19 -19 19 -11 0 -22 6 -24 13 -4 9 -8 9 -15 -1
-7 -11 -11 -10 -16 4 -5 13 -9 15 -18 6 -7 -7 -15 -12 -20 -12 -16 0 44 50 67
56 18 4 25 13 25 29 0 13 5 27 11 30 6 4 8 13 5 20 -2 7 0 30 6 49 10 32 9 39
-6 54 -18 16 -18 16 -14 -10 3 -15 1 -25 -3 -22 -5 3 -9 17 -9 32 0 36 -14 56
-34 49 -10 -4 -16 -1 -16 8 0 18 -16 20 -23 3 -4 -10 -6 -10 -6 0 -2 24 -21
11 -21 -15 0 -14 -3 -23 -7 -20 -3 4 -5 32 -4 63 2 53 1 56 -19 51 -17 -4 -24
1 -34 25 -8 17 -16 26 -20 20z m-519 -1047 c43 -30 38 -131 -8 -155 -60 -33
-129 11 -129 82 0 73 78 114 137 73z"/>
<path d="M3350 2938 c-5 -13 -9 -18 -9 -12 -1 7 -18 4 -46 -9 -63 -29 -86 -97
-33 -97 19 0 19 -1 -5 -20 -14 -11 -30 -20 -37 -20 -17 0 -40 -26 -40 -44 0
-9 6 -16 13 -16 8 0 14 -6 14 -14 0 -8 -5 -14 -10 -13 -5 1 -11 -3 -14 -10 -5
-15 27 -25 83 -26 35 0 44 -3 39 -14 -3 -8 5 -23 17 -34 l23 -19 -27 10 c-18
6 -29 6 -33 -1 -4 -5 -11 -6 -17 -3 -17 10 -98 13 -98 3 0 -4 5 -11 11 -14 6
-5 4 -11 -7 -19 -16 -12 -15 -14 6 -29 21 -15 21 -16 3 -26 -14 -7 -23 -7 -31
1 -9 9 -17 6 -33 -11 -12 -13 -18 -26 -13 -30 5 -3 10 -15 11 -26 1 -11 4 -38
7 -60 3 -22 4 -34 0 -27 -3 6 -14 12 -24 12 -11 0 -23 -6 -27 -12 -4 -7 -15
-13 -23 -13 -8 0 -19 -10 -25 -22 -5 -12 -18 -24 -28 -27 -13 -3 -18 -12 -15
-28 3 -21 8 -23 54 -23 28 0 58 -6 67 -14 24 -19 23 -104 0 -127 -20 -19 -26
-104 -8 -104 6 0 17 14 24 32 l15 32 12 -34 c18 -50 17 -60 -6 -60 -11 0 -23
-7 -27 -15 -9 -25 4 -29 32 -11 24 16 26 16 34 -6 4 -13 21 -58 36 -101 27
-75 29 -78 58 -75 25 3 32 10 48 49 10 26 25 64 34 85 l16 39 33 -85 c31 -79
35 -85 64 -88 28 -3 31 0 47 48 l17 50 20 -25 c24 -31 40 -32 36 -4 -2 17 -23
38 -45 45 -4 1 60 176 81 226 9 21 16 45 16 55 -1 15 -4 15 -20 -6 -12 -14
-20 -18 -20 -10 -6 168 -6 164 15 164 16 0 20 7 20 30 0 25 -4 31 -27 33 -17
2 -34 -4 -47 -17 -12 -12 -23 -21 -26 -21 -12 0 -4 24 12 36 10 7 14 16 9 21
-5 4 -11 2 -13 -5 -4 -9 -9 -10 -18 -2 -9 8 -14 5 -18 -10 -3 -11 -1 -20 4
-20 21 0 6 -26 -24 -41 -44 -22 -45 -42 -4 -68 41 -25 57 -27 57 -6 0 8 4 15
8 15 14 0 32 -23 31 -39 0 -11 -2 -12 -6 -3 -8 21 -23 13 -23 -12 0 -13 -3
-32 -6 -41 -6 -14 -8 -14 -25 1 -25 23 -35 11 -15 -18 22 -31 20 -51 -11 -137
l-26 -73 -29 72 c-34 85 -31 117 13 154 33 28 36 36 14 36 -14 0 -13 3 1 25
14 22 14 25 1 25 -8 0 -22 -10 -31 -22 -15 -22 -15 -18 -10 67 5 80 9 92 31
111 21 18 31 20 57 13 39 -11 36 -12 36 6 0 9 -9 15 -25 15 -15 0 -25 6 -25
14 0 12 5 12 31 -1 26 -13 33 -13 40 -2 8 12 12 11 22 -3 9 -11 24 -15 43 -13
16 1 33 0 39 -3 5 -3 20 -7 33 -8 23 -3 23 -2 6 17 -9 10 -12 19 -6 19 18 0 6
35 -13 39 -10 1 -33 11 -51 22 -19 10 -41 16 -50 12 -14 -5 -15 -3 -5 16 9 15
18 20 31 16 10 -3 21 -1 25 5 3 5 -2 10 -12 10 -15 0 -15 2 -3 9 8 6 17 8 21
5 4 -2 10 0 14 6 3 5 -1 10 -9 10 -9 0 -16 4 -16 10 0 5 -7 7 -16 3 -14 -5
-15 -3 -6 14 12 22 -1 43 -26 43 -7 0 -11 4 -8 9 8 12 -56 23 -80 15 -13 -5
-16 -4 -9 4 6 5 19 12 30 14 11 2 19 10 18 16 -2 7 6 12 17 12 11 0 21 5 21
10 1 6 2 16 3 23 1 6 11 11 24 9 16 -2 20 1 16 12 -3 9 -12 16 -20 16 -20 0
-60 42 -56 59 2 9 -2 12 -12 8 -9 -4 -16 -2 -16 4 0 7 -12 9 -29 7 -17 -2 -30
-2 -29 1 3 37 -5 49 -41 59 -53 16 -60 15 -71 -10z m-95 -448 c6 9 9 9 15 0 4
-7 18 -13 31 -14 14 0 25 -8 27 -18 3 -15 -1 -16 -29 -8 -40 12 -52 4 -45 -26
5 -18 3 -22 -9 -18 -9 4 -15 0 -15 -9 0 -18 29 -26 75 -20 l35 5 0 -71 c0 -42
-4 -71 -10 -71 -7 0 -7 -7 1 -21 8 -16 8 -27 -1 -45 -7 -13 -16 -21 -20 -19
-4 3 -2 -19 5 -48 10 -48 9 -57 -15 -119 l-26 -66 -27 81 c-29 88 -33 112 -17
122 6 3 10 14 10 23 -1 13 -7 10 -27 -13 -24 -27 -26 -28 -21 -7 5 17 2 22 -9
20 -9 -2 -18 3 -20 10 -3 7 3 12 14 12 24 0 43 19 36 36 -3 8 3 17 13 21 24 8
34 23 34 48 0 14 7 20 26 21 33 2 35 5 26 37 -5 20 -10 24 -22 17 -8 -5 -11
-10 -6 -10 6 0 1 -6 -10 -14 -10 -8 -23 -11 -29 -6 -17 14 -49 15 -73 1 -23
-12 -23 -12 -22 46 1 32 -2 71 -6 87 -5 20 -3 27 4 22 6 -3 13 -2 17 4 3 5 19
7 35 3 22 -4 30 -2 30 8 0 12 2 12 9 0 6 -10 10 -10 16 -1z"/>
<path d="M4012 2698 c-7 -7 -12 -18 -12 -25 0 -7 -4 -13 -10 -13 -5 0 -10 -4
-10 -10 0 -5 6 -10 14 -10 22 0 18 -526 -4 -540 -11 -7 -12 -12 -3 -18 6 -4
11 -29 10 -58 -2 -60 12 -81 83 -122 48 -28 62 -41 54 -54 -9 -14 -61 -9 -74
7 -18 22 -32 18 -59 -17 l-25 -31 29 -23 c83 -66 215 -23 215 71 0 55 -19 81
-81 115 -33 17 -59 35 -59 40 0 16 25 17 58 1 32 -15 33 -15 57 14 18 23 21
33 12 44 -7 7 -12 19 -13 25 0 6 -2 17 -2 25 -1 8 -8 11 -18 7 -12 -5 -15 0
-12 22 3 25 6 27 41 24 28 -3 37 0 37 12 0 10 -6 13 -17 9 -11 -4 -6 5 12 23
l30 29 6 -25 c4 -14 7 -46 8 -72 1 -41 -2 -47 -21 -50 -16 -2 -24 -11 -27 -28
-1 -14 -8 -28 -13 -31 -13 -8 -3 -39 12 -39 5 0 10 5 10 10 0 6 9 10 20 10 16
0 20 -7 20 -34 0 -28 -4 -35 -22 -38 -12 -2 -23 -9 -26 -17 -3 -10 2 -13 22
-9 l26 5 0 -83 0 -84 45 0 45 0 0 130 0 130 25 0 c23 0 25 4 25 40 0 36 -2 40
-25 40 -23 0 -25 4 -25 43 0 46 27 99 59 116 16 9 25 6 48 -12 41 -35 90 -56
113 -50 27 7 25 17 -7 42 -16 11 -22 21 -15 21 19 0 50 58 45 84 -5 22 -9 24
-42 19 -40 -6 -62 -17 -137 -67 l-52 -34 5 41 4 42 -15 -32 c-8 -18 -18 -33
-21 -33 -3 0 -5 23 -5 52 0 40 3 49 12 40 24 -24 38 -13 38 28 0 22 -4 40 -8
40 -5 0 -14 11 -19 23 -16 35 -69 33 -78 -2 -4 -14 -11 -29 -17 -32 -7 -5 -4
-19 10 -44 12 -20 22 -41 22 -48 0 -7 -12 11 -26 38 -30 58 -51 82 -61 72 -8
-9 26 -77 38 -77 5 0 13 -9 19 -19 10 -20 -2 -24 -28 -7 -22 13 -25 0 -8 -33
21 -39 20 -51 -3 -51 -11 0 -33 -16 -49 -36 -17 -20 -32 -31 -36 -25 -4 5 3
15 14 21 11 6 20 17 20 24 0 8 7 16 15 20 16 6 21 46 6 46 -4 0 -6 11 -4 24 4
17 -1 27 -15 35 -11 6 -22 8 -25 4 -4 -3 -14 0 -23 8 -14 11 -18 10 -32 -8
-10 -12 -26 -23 -37 -25 -22 -4 -31 -30 -19 -56 4 -9 7 -26 8 -37 1 -15 8 -20
28 -20 15 0 33 -6 40 -13 11 -11 5 -12 -29 -6 -43 7 -54 -1 -31 -24 6 -6 13
-20 15 -30 2 -14 -3 -19 -20 -18 l-22 1 -1 221 c-1 122 -5 228 -10 235 -13 21
-12 50 1 45 7 -2 18 0 25 4 11 7 10 11 -3 25 -10 9 -17 21 -17 26 0 13 -14 11
-28 -3z"/>
<path d="M3795 2551 c-11 -5 -23 -7 -27 -5 -11 7 -38 -38 -38 -63 0 -13 8 -24
20 -28 11 -3 20 -13 20 -21 0 -11 6 -13 21 -9 20 7 20 6 -2 -37 -12 -23 -30
-65 -40 -93 -11 -29 -18 -41 -19 -28 0 12 -6 24 -12 26 -10 4 -10 8 1 15 12 9
12 13 2 26 -8 9 -10 16 -7 16 4 0 -2 14 -14 30 -22 31 -47 39 -55 18 -8 -21
21 -113 34 -110 8 2 10 -4 6 -18 -4 -12 0 -26 9 -36 9 -8 16 -23 16 -32 0 -13
-6 -9 -23 11 -16 21 -30 28 -47 25 -32 -4 -37 -26 -7 -33 14 -4 36 -18 48 -31
18 -19 19 -23 6 -18 -18 7 -24 -10 -7 -21 14 -8 -11 -34 -27 -28 -16 6 -17
-13 -2 -23 6 -3 7 -9 2 -13 -5 -3 -17 -25 -27 -48 -24 -55 -24 -143 1 -186 55
-94 201 -113 285 -38 l32 29 -40 20 c-34 18 -42 18 -59 6 -29 -21 -101 -18
-125 6 -11 11 -20 24 -20 29 0 12 258 19 269 8 5 -5 11 -1 14 7 3 8 0 21 -7
29 -8 7 -17 27 -21 45 -5 27 -4 31 9 26 23 -9 20 13 -4 26 -14 8 -20 8 -20 0
0 -6 -14 5 -31 24 -17 20 -28 41 -26 48 3 8 6 6 6 -4 1 -11 9 -18 19 -18 31 0
33 12 6 32 -19 15 -28 17 -38 9 -10 -9 -15 -8 -19 3 -3 8 1 13 11 12 11 -1 18
8 20 27 2 15 -1 27 -7 27 -6 0 -11 -7 -11 -15 0 -12 -4 -13 -19 -5 -26 13 -31
13 -31 -5 0 -8 -4 -15 -9 -15 -15 0 9 61 27 68 9 3 17 1 20 -6 6 -18 32 -2 32
20 0 14 5 18 19 13 15 -4 20 1 25 26 9 45 8 47 -16 55 -13 4 -28 14 -35 23 -8
10 -15 12 -20 6 -5 -5 -17 -10 -27 -10 -27 0 -46 -33 -26 -45 10 -6 11 -10 3
-10 -7 0 -13 -7 -13 -15 0 -8 6 -15 14 -15 11 0 10 -9 -7 -39 -12 -22 -25 -37
-29 -35 -16 10 -7 88 18 152 30 76 44 96 44 64 0 -26 26 -30 33 -4 4 16 5 16
6 -1 2 -30 30 -53 50 -40 9 6 15 16 14 22 -2 6 5 8 15 4 9 -3 14 -3 10 2 -4 4
0 14 10 21 10 8 12 13 5 14 -7 0 -13 12 -13 28 -1 16 -11 35 -26 47 -14 11
-34 28 -46 38 -12 9 -29 17 -39 17 -9 0 -23 2 -31 4 -7 3 -22 1 -33 -3z"/>
<path d="M913 2472 c-19 -3 -23 -10 -23 -38 0 -22 6 -37 15 -40 10 -4 15 -20
15 -50 0 -49 -16 -58 -38 -23 -9 14 -20 19 -33 16 -11 -3 -23 2 -29 11 -9 16
-11 15 -25 -2 -8 -11 -15 -26 -15 -34 0 -7 -4 -10 -10 -7 -5 3 -10 15 -10 26
0 30 -20 22 -21 -8 0 -16 -4 -37 -8 -48 -6 -15 -9 -12 -14 20 -5 28 -2 44 8
55 19 21 19 34 -1 76 -18 37 -45 44 -70 19 -8 -8 -21 -12 -29 -9 -12 5 -15 -3
-15 -34 0 -32 6 -45 26 -61 15 -12 32 -21 39 -21 14 0 26 -52 29 -122 1 -40
-1 -45 -15 -37 -9 5 -20 16 -24 26 -7 17 -8 17 -14 0 -6 -16 -12 -13 -43 26
-48 57 -82 72 -137 57 -39 -10 -68 -40 -53 -54 3 -4 7 -23 8 -42 1 -35 16 -54
43 -54 10 0 12 8 7 31 -3 17 -6 42 -6 56 0 20 -4 23 -20 18 -32 -10 -23 11 10
25 37 15 70 7 107 -25 l28 -24 -37 1 c-33 1 -38 4 -38 25 0 16 -6 23 -20 23
-24 0 -26 -27 -8 -95 10 -37 16 -45 33 -43 16 2 20 -3 20 -27 0 -20 6 -31 18
-33 13 -3 17 4 17 32 0 19 4 37 9 40 4 3 6 -5 4 -18 -3 -14 4 -33 20 -52 14
-16 27 -40 29 -53 4 -31 28 -40 28 -12 0 17 6 21 30 21 17 0 30 -4 30 -10 0
-5 -8 -10 -19 -10 -21 0 -48 -27 -37 -38 4 -3 20 1 35 9 l28 16 38 -108 c37
-104 40 -109 67 -109 25 0 32 6 50 49 18 44 22 49 39 38 28 -17 37 2 11 23
-22 18 -22 21 -8 47 8 15 15 23 16 16 0 -6 14 -48 31 -93 30 -78 32 -81 61
-78 29 3 32 8 85 153 30 83 58 163 63 178 5 16 15 36 22 45 11 13 9 14 -17 8
-16 -4 -33 -13 -37 -19 -5 -8 -8 -7 -8 4 0 8 6 21 12 27 10 10 8 12 -11 10
-34 -4 -47 42 -19 71 10 12 16 26 13 31 -3 6 -1 10 4 10 22 0 11 57 -15 84
-20 20 -37 26 -68 26 -36 0 -44 -5 -65 -35 -27 -39 -23 -80 10 -103 10 -7 19
-20 19 -28 0 -9 11 -14 31 -14 22 0 30 -4 26 -14 -3 -7 0 -19 6 -26 7 -7 1 -6
-13 3 -25 18 -60 23 -60 10 1 -13 34 -50 51 -56 10 -3 17 -17 17 -34 1 -30
-39 -153 -49 -153 -4 0 -19 32 -33 71 -24 65 -25 73 -11 89 20 22 19 34 -1 26
-14 -5 -15 -1 -10 30 4 19 2 60 -4 90 -11 52 -23 67 -33 42 -3 -7 -6 9 -6 35
-1 42 3 53 30 78 17 16 29 36 27 46 -3 18 -47 31 -85 25z m-2 -347 c16 -4 29
-11 29 -16 0 -6 -8 -6 -19 1 -27 14 -29 13 -23 -15 2 -14 -8 -59 -23 -101
l-28 -76 -23 68 c-13 37 -24 69 -24 70 0 2 15 4 33 6 17 2 32 8 32 13 0 16
-57 18 -66 3 -6 -9 -9 -4 -9 15 0 15 5 27 10 27 6 0 10 6 9 13 -3 25 1 36 14
31 7 -2 21 2 32 10 19 14 20 13 23 -14 3 -23 9 -30 33 -35z"/>
<path d="M2183 2345 c-21 -11 -22 -13 -6 -36 16 -23 16 -23 0 -10 -10 8 -21
11 -25 7 -4 -4 2 -14 12 -22 11 -8 14 -14 8 -14 -7 0 -12 -4 -12 -10 0 -5 14
-10 30 -10 42 0 42 -38 0 -62 -25 -14 -30 -15 -30 -3 0 19 -25 19 -54 -1 -23
-15 -25 -14 -53 20 -20 26 -36 36 -55 36 -30 0 -35 -9 -16 -28 8 -8 5 -14 -15
-23 -29 -13 -36 -29 -12 -29 8 0 34 -19 56 -41 35 -35 46 -41 73 -36 37 5 58
-1 50 -15 -4 -7 -9 -6 -14 2 -10 17 -30 4 -30 -19 0 -11 -7 -18 -16 -17 -9 0
-19 -5 -21 -11 -3 -8 3 -13 14 -13 16 0 18 -8 15 -70 -4 -81 16 -125 71 -159
138 -84 307 36 267 189 -6 25 -12 59 -12 76 0 23 -5 31 -17 30 -11 -1 -16 7
-16 24 0 15 -6 25 -15 25 -8 0 -26 6 -40 14 -14 8 -27 12 -30 10 -3 -2 -8 10
-11 26 -5 24 -7 27 -13 13 -11 -25 -26 -12 -26 22 0 21 11 37 43 64 31 26 37
36 23 36 -11 0 -16 5 -13 14 8 20 -4 28 -20 15 -10 -9 -13 -8 -13 5 0 9 -7 16
-15 16 -8 0 -15 -5 -15 -11 0 -8 -4 -8 -12 -2 -9 6 -21 6 -35 -2z m121 -346
c36 -29 37 -99 1 -134 -31 -32 -80 -33 -112 -3 -35 32 -33 109 3 137 15 12 39
21 54 21 15 0 39 -9 54 -21z"/>
</g>
</svg>
